<svg viewBox="0 0 625 400" xmlns="http://www.w3.org/2000/svg"><g><g><g><g><g><line x1="51.5625" y1="378" x2="46.5625" y2="378" style="visibility: inherit;" fill="rgb(0, 0, 0)" stroke="rgb(204, 204, 204)" stroke-width="1px"></line><line x1="51.5625" y1="336" x2="46.5625" y2="336" style="visibility: inherit;" fill="rgb(0, 0, 0)" stroke="rgb(204, 204, 204)" stroke-width="1px"></line><line x1="51.5625" y1="293.99999999999994" x2="46.5625" y2="293.99999999999994" style="visibility: inherit;" fill="rgb(0, 0, 0)" stroke="rgb(204, 204, 204)" stroke-width="1px"></line><line x1="51.5625" y1="252.00000000000003" x2="46.5625" y2="252.00000000000003" style="visibility: inherit;" fill="rgb(0, 0, 0)" stroke="rgb(204, 204, 204)" stroke-width="1px"></line><line x1="51.5625" y1="209.99999999999997" x2="46.5625" y2="209.99999999999997" style="visibility: inherit;" fill="rgb(0, 0, 0)" stroke="rgb(204, 204, 204)" stroke-width="1px"></line><line x1="51.5625" y1="167.99999999999991" x2="46.5625" y2="167.99999999999991" style="visibility: inherit;" fill="rgb(0, 0, 0)" stroke="rgb(204, 204, 204)" stroke-width="1px"></line><line x1="51.5625" y1="126.00000000000001" x2="46.5625" y2="126.00000000000001" style="visibility: inherit;" fill="rgb(0, 0, 0)" stroke="rgb(204, 204, 204)" stroke-width="1px"></line><line x1="51.5625" y1="83.99999999999996" x2="46.5625" y2="83.99999999999996" style="visibility: inherit;" fill="rgb(0, 0, 0)" stroke="rgb(204, 204, 204)" stroke-width="1px"></line><line x1="51.5625" y1="41.999999999999936" x2="46.5625" y2="41.999999999999936" style="visibility: inherit;" fill="rgb(0, 0, 0)" stroke="rgb(204, 204, 204)" stroke-width="1px"></line><line x1="51.5625" y1="0" x2="46.5625" y2="0" style="visibility: inherit;" fill="rgb(0, 0, 0)" stroke="rgb(204, 204, 204)" stroke-width="1px"></line></g><g transform="translate(41.5625, 0)"><text x="0" y="378" dx="0em" dy="0.3em" style="text-anchor: end; visibility: hidden; font-family: Roboto, sans-serif; font-size: 12px; font-weight: 200;" fill="rgb(50, 49, 63)" stroke="none" stroke-width="1px">0.3</text><text x="0" y="336" dx="0em" dy="0.3em" style="text-anchor: end; visibility: inherit; font-family: Roboto, sans-serif; font-size: 12px; font-weight: 200;" fill="rgb(50, 49, 63)" stroke="none" stroke-width="1px">0.32</text><text x="0" y="293.99999999999994" dx="0em" dy="0.3em" style="text-anchor: end; visibility: inherit; font-family: Roboto, sans-serif; font-size: 12px; font-weight: 200;" fill="rgb(50, 49, 63)" stroke="none" stroke-width="1px">0.34</text><text x="0" y="252.00000000000003" dx="0em" dy="0.3em" style="text-anchor: end; visibility: inherit; font-family: Roboto, sans-serif; font-size: 12px; font-weight: 200;" fill="rgb(50, 49, 63)" stroke="none" stroke-width="1px">0.36</text><text x="0" y="209.99999999999997" dx="0em" dy="0.3em" style="text-anchor: end; visibility: inherit; font-family: Roboto, sans-serif; font-size: 12px; font-weight: 200;" fill="rgb(50, 49, 63)" stroke="none" stroke-width="1px">0.38</text><text x="0" y="167.99999999999991" dx="0em" dy="0.3em" style="text-anchor: end; visibility: inherit; font-family: Roboto, sans-serif; font-size: 12px; font-weight: 200;" fill="rgb(50, 49, 63)" stroke="none" stroke-width="1px">0.4</text><text x="0" y="126.00000000000001" dx="0em" dy="0.3em" style="text-anchor: end; visibility: inherit; font-family: Roboto, sans-serif; font-size: 12px; font-weight: 200;" fill="rgb(50, 49, 63)" stroke="none" stroke-width="1px">0.42</text><text x="0" y="83.99999999999996" dx="0em" dy="0.3em" style="text-anchor: end; visibility: inherit; font-family: Roboto, sans-serif; font-size: 12px; font-weight: 200;" fill="rgb(50, 49, 63)" stroke="none" stroke-width="1px">0.44</text><text x="0" y="41.999999999999936" dx="0em" dy="0.3em" style="text-anchor: end; visibility: inherit; font-family: Roboto, sans-serif; font-size: 12px; font-weight: 200;" fill="rgb(50, 49, 63)" stroke="none" stroke-width="1px">0.46</text><text x="0" y="0" dx="0em" dy="0.3em" style="text-anchor: end; visibility: hidden; font-family: Roboto, sans-serif; font-size: 12px; font-weight: 200;" fill="rgb(50, 49, 63)" stroke="none" stroke-width="1px">0.48</text></g><line x1="51.5625" y1="0" x2="51.5625" y2="378" fill="rgb(0, 0, 0)" stroke="rgb(204, 204, 204)" stroke-width="1px"></line></g></g><g transform="translate(51, 0)" clip-path="url(#clip_0)"><clipPath id="clip_0"><rect width="573" height="378"></rect></clipPath><g><g><g><line x1="0" y1="0" x2="0" y2="378" fill="rgb(0, 0, 0)" stroke="rgb(60, 60, 60)" stroke-width="1px" opacity="0.25"></line><line x1="57.34375" y1="0" x2="57.34375" y2="378" fill="rgb(0, 0, 0)" stroke="rgb(60, 60, 60)" stroke-width="1px" opacity="0.25"></line><line x1="114.6875" y1="0" x2="114.6875" y2="378" fill="rgb(0, 0, 0)" stroke="rgb(60, 60, 60)" stroke-width="1px" opacity="0.25"></line><line x1="172.03125" y1="0" x2="172.03125" y2="378" fill="rgb(0, 0, 0)" stroke="rgb(60, 60, 60)" stroke-width="1px" opacity="0.25"></line><line x1="229.375" y1="0" x2="229.375" y2="378" fill="rgb(0, 0, 0)" stroke="rgb(60, 60, 60)" stroke-width="1px" opacity="0.25"></line><line x1="286.71875" y1="0" x2="286.71875" y2="378" fill="rgb(0, 0, 0)" stroke="rgb(60, 60, 60)" stroke-width="1px" opacity="0.25"></line><line x1="344.0625" y1="0" x2="344.0625" y2="378" fill="rgb(0, 0, 0)" stroke="rgb(60, 60, 60)" stroke-width="1px" opacity="0.25"></line><line x1="401.40625" y1="0" x2="401.40625" y2="378" fill="rgb(0, 0, 0)" stroke="rgb(60, 60, 60)" stroke-width="1px" opacity="0.25"></line><line x1="458.75" y1="0" x2="458.75" y2="378" fill="rgb(0, 0, 0)" stroke="rgb(60, 60, 60)" stroke-width="1px" opacity="0.25"></line><line x1="516.09375" y1="0" x2="516.09375" y2="378" fill="rgb(0, 0, 0)" stroke="rgb(60, 60, 60)" stroke-width="1px" opacity="0.25"></line><line x1="573.4375" y1="0" x2="573.4375" y2="378" fill="rgb(0, 0, 0)" stroke="rgb(60, 60, 60)" stroke-width="1px" opacity="0.25"></line></g><g><line x1="0" y1="378" x2="573.4375" y2="378" fill="rgb(0, 0, 0)" stroke="rgb(60, 60, 60)" stroke-width="1px" opacity="0.25"></line><line x1="0" y1="336" x2="573.4375" y2="336" fill="rgb(0, 0, 0)" stroke="rgb(60, 60, 60)" stroke-width="1px" opacity="0.25"></line><line x1="0" y1="293.99999999999994" x2="573.4375" y2="293.99999999999994" fill="rgb(0, 0, 0)" stroke="rgb(60, 60, 60)" stroke-width="1px" opacity="0.25"></line><line x1="0" y1="252.00000000000003" x2="573.4375" y2="252.00000000000003" fill="rgb(0, 0, 0)" stroke="rgb(60, 60, 60)" stroke-width="1px" opacity="0.25"></line><line x1="0" y1="209.99999999999997" x2="573.4375" y2="209.99999999999997" fill="rgb(0, 0, 0)" stroke="rgb(60, 60, 60)" stroke-width="1px" opacity="0.25"></line><line x1="0" y1="167.99999999999991" x2="573.4375" y2="167.99999999999991" fill="rgb(0, 0, 0)" stroke="rgb(60, 60, 60)" stroke-width="1px" opacity="0.25"></line><line x1="0" y1="126.00000000000001" x2="573.4375" y2="126.00000000000001" fill="rgb(0, 0, 0)" stroke="rgb(60, 60, 60)" stroke-width="1px" opacity="0.25"></line><line x1="0" y1="83.99999999999996" x2="573.4375" y2="83.99999999999996" fill="rgb(0, 0, 0)" stroke="rgb(60, 60, 60)" stroke-width="1px" opacity="0.25"></line><line x1="0" y1="41.999999999999936" x2="573.4375" y2="41.999999999999936" fill="rgb(0, 0, 0)" stroke="rgb(60, 60, 60)" stroke-width="1px" opacity="0.25"></line><line x1="0" y1="0" x2="573.4375" y2="0" fill="rgb(0, 0, 0)" stroke="rgb(60, 60, 60)" stroke-width="1px" opacity="0.25"></line></g></g></g><g><g><line x1="0" y1="1008.0000000000001" x2="573.4375" y2="1008.0000000000001" fill="rgb(0, 0, 0)" stroke="rgb(153, 153, 153)" stroke-width="1.5px"></line></g></g><g><g><line x1="57.34375" y1="0" x2="57.34375" y2="378" fill="rgb(0, 0, 0)" stroke="rgb(153, 153, 153)" stroke-width="1.5px"></line></g></g><g><g><g><g><g><path stroke="rgb(255, 112, 67)" stroke-width="2px" d="M57.34375,77.31819319725032L58.087426757812494,85.85023301839837L58.593214561631946,23.485313108989217L58.97110190972223,126.7884966678479L59.72511647135416,88.61219951620043L61.21476373697917,117.62329951668131L61.718576367187495,125.17172982383843L61.968220789930555,147.646049364616L62.21989613715278,120.77609734316637L62.34784437934027,135.46248564325745L62.59501187065972,118.41565528560008L63.342774370659725,66.86443798173326L63.46748109809028,51.486506342834424L63.59380460069445,3.284875839590798L63.716122005208334,70.07280371521689L64.84299040798611,119.04391476365082L65.58126729600694,80.3340700273591L65.70598995225694,137.49620058404565L65.82810028211807,52.144145163772045L65.95340434027777,30.04122526421352L66.57734416232638,126.95935345520327L67.56006471354166,176.04293034929077L68.42441820746528,211.10451801550002L69.4168314453125,104.76098868953339L69.79641521267362,137.36103698798118L69.92269889322917,135.61662756179524L70.81392430555556,156.83229850402637L71.43724290364582,77.29933026167954L72.42383415798611,-24.678824122099165L72.7988224609375,-12.902850084086479L72.9223584201389,40.60680082766603L74.06408044704861,137.3023129370645L74.3133744357639,136.8313913160298L74.43690243055556,200.94086805762828L74.56219055989584,183.69532192971536L75.43372795138889,61.75890723597122L76.06312339409722,142.41601798222115L76.31311825086806,168.64960492627853L76.43858159722224,135.9687137649149L76.94114381510417,136.78122396850063L77.58508226996527,177.4153265538888L77.71817552083334,237.53650932720154L78.09193730468749,240.6097904524786L78.84734563802083,274.96209663042004L78.97300809461805,232.9306246826385L79.2313576171875,257.14923818198895L79.60429110243055,217.48953813933772L79.85614963107638,191.47150436952967L79.98146165364582,187.00797696057066L80.23468209635416,175.1128104396281L80.48470084635417,192.45373238736568L80.61034737413193,208.86235321534986L87.35014945746529,251.56088111988194L88.34671215277777,130.0188943753847L88.46825700954862,31.811314595292387L88.5936168185764,37.61389904770494L89.0827669704861,43.95014623137409L90.32455384114584,59.10854632456563L90.44523057725694,205.82302455187707L90.6946918185764,213.057439065462L91.18183493923611,246.79205158739538L91.54345099826388,312.6388695918884L91.67121605902777,246.8463026454064L91.79631304253472,192.13537539064922L92.16781293402778,157.25255535256866L93.66336979166667,123.36972140200126L94.4105747829861,59.17533215836986L94.79257176649307,20.881375604607435L95.04393650173611,58.36041572912806L95.16544153645833,107.83967086806456L95.41065774739583,111.06170666894045L95.9068484375,128.58702400136428L96.40315062934027,138.81374818568477L96.64765004340278,145.3278454213444L97.27327832031251,129.00136132652182L99.01845570746528,175.4322751260676L99.64178226996529,236.5169093070554L99.7719286892361,166.6486046468095L100.27410065104165,22.062413272552263L100.39613930121527,78.04882854061871L100.89781746961806,149.71841837070917L101.02132157118055,11.90430150689204L101.26647406684027,71.9253226415009L101.64448088107638,228.57742044303953L102.26842866753472,103.08619406803925L102.39065049913194,151.17271172395047L103.14214830729166,89.7195264064712L103.26718157552084,193.12368128081818L103.3961572265625,219.89611628878504L103.76956061197917,209.86108276384115L104.89203266059029,125.78332784853609L105.13317905815973,-28.68998005937206L105.87439481336804,-30.70690299839181L107.48635151909723,6.012232579169289L107.85783548177083,76.80734670005896L108.34971742621526,87.43825070764215L108.85880249565972,81.24434247437469L109.10029136284722,2.072140019079092L109.5816841796875,83.26680753287074L109.7029662109375,-14.412733282706647L109.82812690972222,-29.868685749805973L110.0721564236111,7.47974608681378L110.69811920572918,60.35647515262232L117.17877532552082,183.31631801012202L117.30121219618057,290.4625302164737L119.27699110243054,227.47752647453441L120.13919420572917,202.83372934373563L120.89220525173613,174.60236697025502L121.01378993055555,89.73357355968592L121.25892649739583,47.48791330085058L122.00977918836804,52.54878154412428L123.12415143229168,141.57489575752928L123.37348524305555,116.60648554449858L123.50049368489583,169.16388441256032L123.86939717881944,162.36956763941862L124.60450423177082,162.34119272636664L125.61132508680556,196.83114080671837L125.73736983506944,118.2341772380136L126.1243843967014,261.38942535297053L126.2508273654514,212.32872609839424L127.38073020833332,257.6858408245181L127.50630505642361,220.91310609535782L128.88772395833334,113.61587227080113L129.2609043402778,48.13874180730491L129.389290625,70.46890215645011L129.6359404296875,110.08565585952857L129.8801133029514,227.87208719934148L131.61913420138887,182.0893113367862L132.23655913628474,195.9884748311702L132.48451510416666,117.96780208658352L132.8656519314236,64.56891591495976L133.72868333333335,151.89651851145447L133.85260158420138,-19.412081740569977L134.59783936631942,73.8136111603546L134.84554047309027,115.6881576839905L134.973568359375,102.0246563711059L135.2270356987847,-19.09739079724013L135.7141708550347,-49.104867949427174L135.96356838107639,75.07040533164682L136.58050748697917,203.76463499510018L136.70305585937498,282.98456477429704L137.8149113498264,227.3657305199279L138.06477877604166,198.22907294978938L138.55840492621525,116.87427972644717L138.68730889756944,150.4581244402536L139.3116867621528,241.47486465057193L139.80884114583333,248.67896729040424L139.9333407986111,82.31564644174739L140.3077158420139,150.7143878650483L140.56017966579861,105.9363231010328L140.80890818142362,194.24270606917682L140.93214149305558,259.9151189856681L141.05320052083334,246.05816047984075L141.17385336371527,182.46281357763837L147.2388150824653,206.39611198996676L147.3628209418403,167.63467327651495L147.98281838107638,215.5455019944734L148.110734765625,201.21255028687867L148.9777802300347,143.7169922616658L149.22468489583335,119.20797851244072L149.9634476128472,117.2247990283933L150.2199573567708,127.21908423385429L150.83499296875002,196.31305244613526L151.449574609375,160.9878278914024L151.69116701388887,238.01187207358657L153.19295203993056,261.11202622686363L154.0525428168403,180.25183497211057L154.1765327473958,144.63468867743435L154.4215578125,0.6604015243317487L154.5450937717014,140.69547239615116L154.67035004340278,63.227029416999706L154.79100288628473,205.6550353133926L155.03454657118053,224.71802118803552L155.40818092447915,214.69748613468107L155.89716382378472,204.93883436460075L156.52536460503472,223.76328860246403L156.90918543836807,121.78787032677694L157.40817163628472,184.60606665559993L157.79079780815974,114.10062458007555L157.91126746961805,81.2757638567031L158.16179594184027,121.96546546657913L158.2893300347222,115.7013062479498L158.53300911458334,191.17749303832053L158.65840874565973,226.11702371987343L158.78239071180556,229.39653397412673L159.1464996310764,157.18406267649868L159.2669533637153,75.37844621948572L159.89945492621527,151.45737025625812L160.02279973958332,245.1855314104993L160.89224249131945,174.31131622369523L161.27121299913193,185.78679640993727L161.76576302083333,191.59514899197376L162.1335037109375,20.596101922650004L162.38192161458332,-0.7255231363421588L162.6292006076389,34.40401888949597L163.1300026909722,-9.224259560925358L163.6164449435764,-46.177341094984214L163.98974479166665,119.84143231429249L164.1150169921875,192.01093009780396L164.23793969184027,124.65655805868248L164.35856067708332,90.30162521721329L165.10151267361113,130.93547785592912L165.8519910373264,94.0689770955613L166.10400088975695,-12.382768405749204L166.22836514756946,55.167591754630855L166.7218638671875,110.7503219270918L167.0912611545139,114.16431158925377L167.21290158420138,92.70867945042419L167.58841553819445,75.49188466839288L167.71312226562497,137.14377906305958L167.83541577690968,192.81657659043887L168.0793815755208,184.37668225187073L168.33195690104165,23.82602604042298L169.08741302083334,110.92627420312644L169.45584661458332,59.301209964075504L169.5797887586806,-1.0617842449433144L169.94589674479167,107.05804354109243L170.07435470920137,123.17254089211151L170.19658450520834,193.6035195284767L170.44879346788193,135.1982873972465L170.57659038628472,120.01788577414806L171.32667849392362,132.62249155627052L177.66809283854167,81.0343601452491L177.7901792751736,42.97106321735264L178.03682907986112,86.85497264911574L178.28535848524305,131.97965701132915L178.53186493055557,229.59783787554443L178.6548115234375,269.84759942904674L178.77679442274305,178.90166454443678L178.90222591145832,92.04636529045905L179.02952903645834,79.28385273788936L179.39982630208334,-4.696337889584549L179.90350353732637,129.63839209619005L180.27399991319444,184.91746394957818L180.52053821614584,278.9504773683888L180.6431025173611,197.56329288885252L180.76647122395832,230.38662280324252L181.49815358072917,243.48324845840426L181.62096477864583,220.14709366923498L181.86613320312503,61.707991156375L182.24515149739582,182.97478968703484L182.73914401041668,178.24803189518292L183.11839327256948,192.62304370452304L183.4957310763889,160.66856728106336L183.62370321180555,227.57266794508448L183.87130078125003,168.8756832293615L184.1267910807292,87.65973568033847L184.37178428819445,10.494628143737753L184.99643294270834,190.77980501200557L185.3595861328125,197.5039547368634L185.6072792751736,308.2023761799781L187.95219264322918,304.33763583486365L188.20401931423612,235.5191804884975L188.32161382378473,190.01609498972323L188.83000598958333,192.66421155163425L189.0773646267361,182.11837451475134L189.57541898871528,212.8218934107856L189.8183175564236,282.0042453032157L190.06903717447918,199.48775369056588L190.43557523871527,201.41116207914664L190.68316484375,237.14527927683056L190.80669283854164,141.27663108614829L191.0487631076389,162.5047161871656L191.54356799045138,111.52851020660785L192.03657291666667,120.83874313453906L192.90937664930553,122.39852237951787L193.03530989583334,199.35756683499832L193.15886974826387,216.10400719732775L193.28649144965277,231.83850857788764L193.9000536458333,134.22740176424054L194.15368027343752,132.1085416502039L194.52338020833332,204.24856033481842L194.6447179904514,192.99550890062864L194.7670035373264,282.5528666444696L194.89182973090277,246.22994639087176L195.8883287109375,202.42732101445475L196.01307526041668,178.47457913020307L196.38588131510417,204.83019292032154L197.25743463541667,135.61164171502256L197.6268398871528,101.26600589159285L198.6244937065972,72.22884200694058L198.74932786458334,126.33928069282706L198.99547591145833,106.42292809968659L199.11998352864583,108.07939424804128L199.24688046875,189.15435413534203L199.6200050998264,227.94261248120523L199.74166942274303,177.17487921243216L199.99412528211806,201.782146822961L200.2492731119792,182.87892273160924L200.87756946614581,179.72734596188735L201.00169479166667,177.60128103408726L207.32456002604167,177.12077042289675L207.45064459635415,31.180657463241232L207.57699199218752,147.35587396441016L207.69944479166668,200.28405112158126L208.0632271701389,158.57044240314283L208.18381629774308,-2.20567290497716L208.30995661892362,31.172375723642627L208.67908311631945,79.41414473350196L208.8027703993056,133.58228844341835L209.8034029079861,210.27515741549263L210.30006349826385,252.16508343435717L210.55207335069446,294.03393475185277L210.80058682725695,217.20100116712112L210.929809375,204.82495179165755L211.30002699652778,239.1935531043372L211.79969016927083,183.36728661914827L211.9248747612847,156.8567249873886L212.04751870659723,178.6933496534592L212.42840067274307,170.49383557675864L213.41942810329863,198.17922084831355L213.6650425347222,52.2065572816321L214.16004652777775,91.21959829796485L214.2865611762153,45.906449177677224L214.65179307725697,113.23191281486424L214.89708096788195,91.28619473176524L215.14817491319442,145.0305339872677L215.7673679470486,72.13612129568101L216.64222649739582,70.30775929855727L216.7649261935764,162.90678678373945L217.13810657552082,71.67935735237862L217.3802963107639,119.54094218166036L218.1314755425347,125.88347410530649L218.2607140190972,148.8391645394015L218.50909210069446,113.3595322872548L218.75847369791668,52.55756416948733L219.2487070095486,63.86662096400314L219.7500347439236,47.84832884442367L219.99987827690973,49.37378169042799L220.6195810329861,117.07958407964071L220.74711512586802,84.74186622956837L220.8706670138889,-4.13671209895942L221.7238066189236,56.01676724860475L221.8429302951389,120.44643601482751L222.5643146701389,36.376970724497106L223.0646149956597,116.51708533539403L223.1869562934028,182.11024977072483L223.30758524305557,131.26133852782496L224.4165974392361,90.92231086243775L224.6694435546875,47.08671929448584L225.0330029296875,74.78537365203941L225.78458834635418,93.46045444253583L225.90273240017362,118.22364033367336L226.40245928819445,109.36353572074236L226.77602196180555,1.3067870131949026L227.02140542534724,108.67157220791694L228.7578697482639,197.73626775712316L229.13097845052084,341.0084287117156L229.50193676215278,336.22611945809325L229.6309761284722,317.26443468297356L229.76063671874996,274.1976464436342L230.13510733506942,296.65474866902167L230.25813357204862,195.903598589154L230.38800123697916,259.0498545422863L238.47297619357636,227.22366272537167L238.84225401475692,194.59123928027302L239.09191436631946,163.42742461369602L239.22066701388886,61.01550418380596L239.95272369791667,118.3807341470938L240.07985957031252,161.99158784238222L240.32067146267357,131.7618660240634L240.5668434027778,120.53463001902482L240.80963046875002,202.9170003643965L241.0533732638889,191.5649913734994L241.4213608506945,175.91677631061083L241.66896638454864,187.57358930778986L241.92100013020834,152.4108293907195L242.1687808810764,196.68422904350456L242.41238031684028,250.60652183734229L242.6609495442708,258.4287786438635L243.89893739149306,214.98802871433315L244.38136558159724,201.4156203444446L244.86228053385418,208.12016202066215L244.9800184027778,97.82820454271956L245.10276588541666,135.49691213984684L245.34755201822918,168.18015984189148L245.72441195746526,117.51717998678463L246.09557734374997,130.2051495676933L246.34164574652777,-19.195058204787987L246.7179242838542,65.01629284736035L247.46621243489582,132.5944032890588L247.71427194010417,79.69213472741784L247.95794305555557,92.92762076221675L248.08116043836807,115.59891407109956L248.45536822916668,114.11107430707014L248.58048114149307,113.71209002644184L248.70161184895835,167.28933506673798L249.06889060329863,167.57359603325264L250.05251113281247,42.494164772508945L250.66752285156252,54.96767639379411L250.91583721788191,41.0694848970217L251.66250859374998,112.42667810175679L252.16235494791664,151.69949107202217L252.28542100694443,65.08926203746984L252.40612960069444,84.1658971482479L252.52710101996527,88.48215895735999L253.27648825954864,132.70953458454466L253.65217743055553,155.02085491362962L254.52317324218748,153.6593205710873L254.76541076388887,170.35212148312476L255.14149019097223,144.04373968293515L255.2622863932292,119.1459018984452L255.6433754340278,153.34526480430446L256.38742651909723,116.27971108671467L256.6373815538194,120.81398897121218L257.01746707899304,144.7792926117771L257.39847647569445,95.5221217802163L257.5229363064236,123.16386301106186L257.6438360460069,134.8760992931484L257.76769854600695,203.1601418165658L257.8941255859375,180.4806959812816L258.6368864366319,195.6484284034357L259.38038001302084,241.7366050023427L260.1198834201389,187.86342105499446L260.8818783203125,75.15759750146586L261.50844639756946,75.39736387693246L267.8234029730903,96.28458064534287L268.6978155164931,189.81285663686998L268.9469422526042,210.42104056026218L269.30927510850694,236.429379001532L269.55801158854166,201.27384110407465L269.6809103949653,120.86832974026458L270.048491796875,226.83210710090313L270.1718127170139,160.47573239446828L270.41779351128474,153.93360533023565L270.54085957031253,124.9719249588531L270.91338687065974,159.56246963633788L273.0202281032986,145.43749346431312L273.1462967447917,116.00465992746477L273.2696654513889,133.3337612846954L273.89048322482637,55.27570957538264L274.2584548828125,43.52961556075077L274.76146310763886,-24.736264419805607L274.8862893012153,71.17981198295857L275.00947482638884,165.90787884512483L275.50261514756943,135.61185019563996L275.6285722873264,125.9517343601665L275.7529684027778,180.03865259653813L276.00354466145836,132.13227206329395L276.4992097005208,172.1345265260929L276.7400295572917,153.38337366292433L277.7145706597222,162.12657246893372L278.3401909722222,62.069580947790776L278.46469858940975,-50.95823340688098L279.5744833333333,98.33935129002373L279.6989431640625,94.03340184304506L281.06307133246526,155.0781993604505L282.0518766927084,42.40807770113964L282.17982493489586,134.01797646534945L282.54363917100693,182.66589728744327L282.7955056640625,179.92029070706076L282.91509127604166,213.22114820391482L283.89923745659723,131.307349605027L284.02597510850694,109.61327858129928L284.1545445746528,165.30599367236962L284.2821981336806,166.3835911966317L284.6675959201389,121.73321844440427L284.90815295138884,45.82670875371531L285.15273200954863,-33.90576326858383L286.13647200520836,15.866258311203714L286.76167020399305,116.24915938850135L286.89043081597225,174.98722704217366L287.26242450086806,163.02870359400228L288.1283947699653,171.69902895915106L288.38946015625,182.95410804168935L289.6381680989583,202.65398886332846L290.26053096788195,178.91003595906454L290.3833103081597,154.68395482968066L290.64361907552086,120.91602351350046L290.77557341579865,30.295092928901013L291.5206120876736,60.32442461758535L298.1876035373264,45.93740179127261L298.3086546006944,-20.184929454411243L299.4347345269097,150.68500866646463L299.92142367621534,199.28028668257534L300.1710760633681,213.64817140873035L300.67479312065973,207.68159407601217L301.7996624565972,165.45601183310418L302.05257228732637,234.44728735765977L302.4263340711806,239.7959673147271L302.6746404730902,215.76282947903096L302.7995781684028,184.60987854984532L303.41063953993057,260.21591878525686L303.7770581380208,228.53310327882934L304.39681664496527,160.0495930502138L304.64601506076394,139.84831614430678L305.39061569010414,205.96613141975368L305.51824535590276,214.9402151410673L305.64603430989587,227.93335921197496L306.1299996310764,272.847034446176L306.75412263454865,225.01349629865646L307.12657825520836,228.34143456164932L307.3742873263889,143.80036072936014L307.73900154079865,129.48021286133735L308.09783802083336,242.93591919782045L308.5883978732639,233.06410941626004L309.45893971354167,250.71847406116356L309.58218895399307,260.5060760920479L309.70357452256945,328.41194128663744L310.5684218098958,91.30599360270139L310.81601141493053,190.71087344052097L311.0587029079861,112.01904306150497L311.4372114800347,129.2620122512401L311.5586607638889,124.89514060498591L312.311783311632,183.83052360821551L312.4349927300347,112.02771856670851L313.42578919270835,112.44194928577713L313.79188921440976,-5.196890021734504L314.0382363715278,-8.474947380557067L314.1662801866319,93.14688667801947L314.4185767578125,30.151962859320108L314.79299162326384,16.05157061987373L315.67162530381944,149.49761221750526L315.79662671440974,189.06879128184278L316.4180019965278,138.92314203480694L316.6758019748264,15.525831460355707L316.8019661892361,84.54736161196175L316.9316666015625,188.6652696130511L318.0432831597222,155.91332430826645L318.5277183810764,107.78248326293837L318.7735558159722,145.13264732546932L318.8987244791666,117.3823937713344L319.14528667534717,145.99457598562475L319.7825828125,130.29673891565463L319.9072337890625,205.2669340926484L320.16422936197915,281.2355998610303L320.28387868923613,205.52159992783342L320.40935796440976,114.6210560794417L320.7896664930555,196.5628004548396L321.0366985894097,198.57767746910125L321.2922605685764,164.74660776892108L328.20590182291664,146.28325495027778L328.58192549913196,250.42450252117675L329.70399932725695,187.58804163302162L330.4518574001736,142.41948886492955L330.57440577256943,81.37895390855738L331.31262690972216,172.0273640004841L331.4359080078125,39.412822571280394L331.5570785373264,58.15990767889183L332.5456051432292,80.72753497369868L333.2979232855903,202.63652956728802L333.42664407552087,238.4182791009227L334.42834381510414,325.5450732287574L334.5586415581597,269.7014187560563L334.92956801215274,200.5763951531698L335.299602452257,256.2731143708021L335.8001496744792,240.68856406658836L336.0437331814236,224.75600767403802L336.5454113498264,228.57992434662555L337.29531627604166,187.9750698576092L337.78882296006947,190.6909311395717L337.90765195312497,123.26341842304659L338.2817163845486,187.86343745405068L338.9014669270833,291.0853464842712L339.39124626736117,172.9281300688312L339.8912519097222,200.93457851317672L340.1382521484375,109.84770217840166L340.99893404947915,229.5649043995398L341.2435768229166,259.59921738375766L341.3682755859375,229.05854685824835L342.09735358072913,187.10995564294885L342.22108068576387,202.97450042625087L342.347292686632,36.87658267533671L342.59972465277775,106.25618022272513L342.84409663628475,97.91604777329879L344.3130444010417,203.48808057399825L345.4264848090278,175.82720636899612L345.91957734375,270.0247396920641L346.54288797743055,171.79711944428198L346.67000792100697,109.98795150856438L347.2849638888889,168.79542488539374L347.41108828125,175.354451720024L347.53177298177087,147.8976439858107L348.0424031467014,110.12039319423606L348.16630546875,152.90861158220628L348.9065575303819,20.8347328939954L349.4065552083333,57.46555445426232L349.52847439236115,64.73327177663755L349.6575774739583,125.80466276347698L349.90294500868055,169.71728156769314L350.02707033420137,191.64575971820375L350.6485411892361,119.24939483200562L351.01569251302084,70.69899226304916L351.26639620225694,155.00328956292296L351.6362235677083,169.53530150798687L357.8191939453125,293.9066800483926L358.18827265625004,229.8789456015147L358.4383710503472,189.40323744567135L359.3113101779514,312.5176147601122L359.55815909288197,278.0648366916843L359.80598763020834,261.1027257149618L361.0459347222222,257.1054403606177L361.1682441623264,260.39010142225743L361.2904898871528,233.10311893784242L363.0170863064236,224.95535833932897L363.5091275390625,113.98718795357901L363.99489281684026,143.05898400055625L364.12382068142364,203.59850861970943L364.49172065972226,201.20972186532236L364.6148265407986,120.01094759825828L364.98811046006944,94.95965631797282L365.2355009548611,118.83304300304869L365.48450026041667,156.18402894971746L366.0973456597222,166.793691209781L366.4749144314236,106.26128686179392L366.7295525390625,188.13323429053827L367.09143938802083,55.759958999310804L367.454879296875,94.43375688609761L367.813851171875,91.86025103221701L368.05521260850696,160.59463353330113L368.42379752604165,130.98535205944907L368.79724073350695,182.0401667238744L368.91744756944445,168.94232331999967L369.28355555555555,207.1931255536606L369.6539882161458,141.03701137765225L370.74252391493053,156.05749568500505L370.99321963975694,252.53170128559103L371.6171355685764,247.40194027361287L372.2443806206597,291.9310227438034L372.3751960503472,242.35860863949182L372.50136822916664,245.70606274381473L372.7487985460069,283.8311912713957L372.87578309461804,316.8320508777208L373.12816727430555,255.422129820532L373.37997801649306,231.9897685711063L373.75162923177083,216.7550829329775L373.8820305121528,106.53303614131717L374.38233083767363,172.2626892499453L374.9934718532986,85.01912706925428L375.2428693793403,163.01147857805464L376.1135705078125,217.8957845658086L376.245389453125,165.91070634663234L376.37289168836804,127.4272695454367L376.497415234375,194.78679933979566L376.87392473958334,256.7884919097093L377.11815336371524,248.9752345234196L377.61331664496527,206.2466898053908L377.98807398003476,209.30094895899435L378.2381564453125,43.64688569390854L378.4811187282986,85.90635470202017L378.6056422743056,-48.30701992720091L378.73001449652776,99.66326753014494L379.2084923394097,81.99795193501807L379.70815551215276,153.41571819203193L379.8340967230902,35.62679507384949L379.9562946614583,164.93971067696964L380.44921197916665,178.16382068413586L380.5722700737847,222.53072100888542L380.8256020182292,143.23006242520125L380.9454424913194,135.9072642445952L381.19272944878475,162.4187736582988L381.31608222656246,150.65127253962964L381.4395305772569,186.924090101918L387.45002369791666,252.02112390673176L387.5735516927083,217.46353212640292L387.8246615668403,179.99390611437323L388.4484898871528,225.79092956416227L388.57578504774307,148.6745684673334L389.32314932725694,68.78403070747522L389.445920703125,126.63256976115504L389.56863632812497,49.9487731761205L390.05976961805555,101.49545103946136L390.3051769748264,106.37863601826915L390.5557134114583,120.56804202546645L391.0439396918403,79.77158674329506L392.2703393229167,191.36830664116127L392.51632011718755,41.07185011171081L392.76593268229163,183.00005624927752L392.8923676866319,83.30773915194081L393.3873796440972,108.06837509478694L393.6306445746528,108.50795473102066L393.75053283420135,267.52428875829776L393.8745944444445,228.2116173414349L394.2457200086805,87.22374736714119L394.74776453993053,132.79740578799095L394.86826605902775,112.29020523350621L395.2379182074653,131.06192993713128L395.60717213541665,198.15295314546037L396.83809555121525,200.2226059899068L396.96206955295133,242.32636430652954L397.328910264757,180.42560965294842L397.45385592447917,120.09172715231891L397.7028154079861,169.800481733591L398.07124900173613,99.17425314003854L398.3152068359375,161.4924258674063L398.4349756293403,129.73182188778387L398.6832183159722,61.03909313267029L398.80145794270834,95.82345134964916L398.92011968315967,174.49938630432695L399.04671397569444,122.8996234379459L399.2914523220486,145.72025230182695L399.53118105468747,183.4099245229572L399.6563815755208,209.9126269435412L400.1522775824653,88.87172825428995L400.2726277777778,129.06541704710216L400.5242234809028,182.6769816373342L400.89999229600693,190.9671138938995L401.5248480251736,202.26807370285576L403.0103219401041,110.21105698645346L403.51339388020835,218.6814615958943L403.88569021267364,263.6650717874774L404.49142339409724,241.23511480214648L404.7434730685764,163.2681791718152L405.1253744791667,201.16090035053173L405.863149609375,72.44278292424724L405.9882545572917,97.2851432118848L406.2315752387153,108.94310521805498L406.60289194878476,58.71079659297601L406.9722733072917,34.70555548569282L407.09445531684025,69.02333567560146L407.22440262586804,90.92978824389235L408.34852330729166,56.676780588699856L408.47229023437495,176.12499268488492L408.59655891927076,160.7668947198177L408.72303374565973,250.12038840163856L408.9723914496528,296.60556915586653L409.2224978081597,321.90408656111634L409.59979578993057,406.66503823465865L410.22450815972223,144.54843299786305L410.47375436197916,122.62868052244222L410.59874780815977,194.68766616296782L410.72854379340276,58.60414194173819L410.8535531684028,99.00247334901812L417.60435410156254,73.14693445840079L418.7127530381944,82.35130802916656L419.31709244791665,102.2968924529979L420.2973918185764,122.22518966720274L420.4241215060764,61.595351446424516L420.7953585720486,88.52931145951419L421.28696972656246,152.17966792658132L422.1438287109375,160.1794378142068L422.5174391710069,209.42530199173152L422.89407610677085,185.373404480714L423.01640944010416,203.31294177633424L423.1414904947917,159.9703857342118L423.3992187934028,54.30419208048065L424.3901028645833,141.09398647211955L424.6324518880208,149.720790601152L424.87877515190974,152.4025653221474L425.12961423611114,59.08599290956654L426.34769902343754,108.50235048359397L427.33487964409716,25.054182621394197L427.46241373697916,95.80826588425305L427.58691338975694,124.68495452376165L428.08502350260414,1.5403878448722272L428.82508441840275,25.969257531065814L429.8142163194445,51.545362292229605L430.5554002170139,33.39327081352433L430.67923085937497,71.77153477853511L430.8014128689236,91.14095784298162L430.9274257595486,146.2103601042722L431.1787427083333,110.54885190393293L431.4129998914931,97.52930828133684L431.77779375,95.6475492727725L432.526647374132,165.91111586165243L432.77391043836803,203.76361654801264L433.64610887586804,236.8238017475789L434.147038389757,214.49783305622256L434.4030782335069,167.4869380730218L434.8830772786458,136.19216284381307L435.00720260416665,250.49668141142706L435.25859123263893,131.59753143749347L435.88070720486115,115.90260608173439L436.2572087456597,137.31493625150335L436.50833454861106,133.4351240700853L436.88122024739585,240.52342595496015L437.0043978081597,106.85834249161623L437.1292240017361,74.28748531522118L438.37755761718756,85.63916942704765L438.4990307942708,136.4558349444212L438.7530875,206.15458378754505L438.88289941406254,209.62655187584417L439.0038310112847,230.30925722680968L439.1300907986111,140.4099550471453L439.6343812934028,145.3368829384893L439.8752728298611,151.5785955128342L440.25193365885417,105.09452783687532L440.5022072699653,193.82429644837154L440.7503942057292,235.58396600111817L440.9982944227431,195.53630002990067L447.9011359375,100.52178001794042L448.39463465711805,135.82075481648928L448.64404014756946,271.19245622775367L448.89110410156246,234.25495389831894L449.14113081597225,236.25296876271267L449.51767217881945,147.5324299182873L449.8833899088542,93.82471188583263L450.62472513020833,125.75746570037778L450.74996547309024,149.5500010610042L451.24443585069446,149.7041960692655L451.6123039713542,171.32037826396524L451.98191629774306,236.92972695837915L452.2307005642361,288.6911722899109L452.35348786892365,187.99365544799753L452.8502997829861,185.39378342916834L453.3331739800347,149.34794074231547L453.695522764757,164.2603652354131L453.8173224826389,125.47861503815938L453.93802311197913,162.93161558661623L454.06304841579856,115.01302814217664L454.432445703125,191.02137451012277L454.92306927083337,217.37487361812208L455.6727034071181,162.88417910327675L455.8007790798611,174.9165203976044L456.1638366970486,237.18217837854672L456.77933424479164,210.2151843312051L457.1530482421874,193.32910559193294L457.27713374565974,149.15341313848492L457.52349683159724,252.69203715425488L457.7677812065972,209.65158966125105L458.01276644965276,252.03442298734825L458.1380306857639,208.91122719862838L458.49713795572916,156.8653155161069L458.61453335503467,107.082979678698L458.8686298828125,210.36793584799017L459.2374696614583,259.21098057732127L459.3598906032987,317.8663609999725L459.60706605902783,178.48503290285518L460.33865284288186,116.3375437895646L460.707858984375,148.0968673133964L461.08306232638887,108.16671552086557L461.2039859592014,148.1000233520549L461.69628205295146,234.64065432724252L462.44549407552086,257.83053846464696L464.04608556857636,233.89831735674224L464.5389391710069,227.53898421516226L464.7848323567708,166.39005441421386L465.40896332465275,81.00503093572917L465.78193663194446,122.18276571376593L466.0276944227431,128.21698321785613L466.52713459201385,89.82716468504714L467.14327725694443,32.97866451461098L467.6282301649306,39.58470690082902L468.12526508246526,121.49626958269704L468.49255976562506,172.86124026715055L469.61159118923615,124.34247558080726L470.3557378472222,42.47699699856983L477.3936955729168,131.6130354050287L477.51418116319445,197.27272422572906L477.6325561848959,271.717470547324L478.0051551649305,296.5462641601357L478.1315344184028,229.2787091663238L478.74614791666664,197.39539789740775L479.4762533203125,124.27196073284469L479.6036998046875,245.37123370022007L479.73058878038194,310.9186019888545L479.85895117187493,267.85335645622166L479.98531449652785,248.6178899857173L480.105529296875,308.73436667041597L480.2244777560764,268.83086830089445L481.21452556423606,247.41241682594995L484.0587994574653,231.37988126889448L484.1887388020834,172.42793076405272L484.31657554253474,129.26544395190095L485.17020097656246,158.47356056631583L485.7852604817708,158.4659531561194L486.1614434461805,119.45604002759798L486.52864255642356,119.07744662932123L486.65535631510414,130.77145796401237L486.77850998263887,143.88510878910384L487.2743422743055,139.75187306421856L488.25595577256945,81.11810133944667L488.3765926866319,146.0813770180387L488.7436643663194,216.01011757167836L488.9970600260416,163.2060725457231L489.1221649739583,145.03669680158842L489.37052712673614,86.07106240392051L490.8507604600694,18.042653464080885L491.0921856119792,13.116507996798784L491.4618696180556,107.95064234118543L491.7070221137153,240.2370606385523L492.3183542751736,7.677448136976623L492.6836498914931,36.710567154509576L493.05057821180566,30.571162699474556L494.18086334635416,-38.983613777867696L494.30314889322915,47.04060828166489L495.03984086371526,99.57251064465814L495.28786851128467,177.06114545158366L495.41080713975697,23.811687270950152L496.1555590928819,32.48700401791986L496.52469355468753,101.30090960031185L496.6499816840278,223.4350953111973L497.2693897569445,177.2610536104397L497.5209217447916,225.69456112897126L497.7695069010416,216.61674335310292L498.13478658854166,221.4719239873256L498.2592543836805,188.08315010086088L499.2567568793403,166.33561088571184L499.8815727864584,193.21413603978877L500.1390143663195,124.76229595874263L500.2654573350695,131.74158239206383L500.3867393663195,143.69949231052826L500.8951713541666,146.22903848591105L507.5914797960069,175.00821290554202L508.07530175781244,139.98575240458007L508.45284663628485,134.63669503977871L508.5802214409722,211.5495967701136L508.8299056857639,220.34252757042995L509.83002847222224,168.64494434720484L510.44443489583335,198.18006672696004L511.9165206380208,186.7993976487859L512.5206290798611,178.44795566881567L512.7679399305555,244.5943432693772L512.8871512152778,217.774779131716L513.2535220269096,171.70919039887522L513.383541015625,121.7639861765047L514.4858073567708,80.75839337483288L515.2449828559029,82.29333620533494L515.7297366536459,192.6514695481369L516.348157139757,273.96675357794226L516.5943290798612,254.70555973992026L516.8439655381944,184.99860563841614L517.0842358506944,242.5262982306906L517.3329245442708,184.13243447888067L517.7118233723958,45.424117250133534L517.8285816189236,-79.70259980983197L517.9522450086806,54.89064643009506L518.3174370876736,120.6592685057163L518.4470897135416,192.44948609313008L518.5692319010417,155.52559909606362L518.696208485243,122.39770966401328L519.0610660590278,210.02992862242832L519.1897151692708,171.49932256804934L519.3138723524306,147.30562557856462L519.6858102864583,246.39417709159986L519.8086931640626,158.57748206405714L520.0574535373264,245.19579367607167L520.1815071831597,206.85081999760462L520.6799438368056,194.88495965755936L520.9293333984375,201.4250999209699L521.0592169921875,196.59744004711015L521.1819405815972,150.5702257889777L521.6710349826388,174.5548028909129L521.9217386718749,160.3466636158801L522.1673451388889,160.39455636845682L522.5366548177084,144.1944325954119L523.6621772352431,179.44639898481364L524.0403751953125,182.30694823945998L524.2900435112847,222.40235212734598L524.5407790581597,220.6414050775245L524.7877633680556,165.98484504923073L525.0441377170139,208.46018851223502L525.422630360243,219.45258958591774L526.156287890625,196.36409816416355L526.6496034288194,113.74571948809768L526.900235438368,172.93504203297707L527.2710902126736,175.90219638906717L527.7811389756945,264.7413073430229L528.2777039930556,230.616204121695L528.7736876085069,174.28226071535713L529.2632359809028,210.79965895378098L530.0038862630208,202.22217546679673L530.3772259331597,135.8765877412444L530.8751608289931,187.54183938066285L531.122830078125,136.1435186979778L537.4495580512153,100.59461374983837L537.5647074869792,235.92317874375374L538.4304069661458,188.29633287872912L538.803396202257,260.66450002363945L538.9272427734375,97.29653021437896L539.5427642144097,39.548916415828295L539.6634489149307,174.92933983591672L539.7895972005208,115.39309040896588L540.0397752387153,149.6410830509215L540.4138476345486,29.96025055000489L541.0261355251736,75.78140426486313L541.3962257161459,172.50446105485892L541.5177785373264,135.10416827491366L541.7618080512153,145.75504537756117L542.5034538845487,219.81191508969596L543.7349109157987,175.08714547753883L544.5950114149306,169.80568923354474L544.9515143229166,57.39110749840929L545.0785705512152,49.368000947715096L545.9507450954861,132.53095033364363L546.0692953342015,202.71856185553594L546.1962400607639,173.36670940374208L546.3251519965278,234.45250092300697L546.4491259982639,232.5616050383623L546.9469175347222,313.64604710466716L547.3086610243056,208.6028241570417L548.6809766059029,160.27179447744044L548.8040824869792,188.25197577437018L550.1563118272569,120.85706634497787L550.2806920138889,212.11592528328984L550.3970520399306,221.2158232039553L550.64020546875,188.6853897754157L550.8901047526041,227.55746813915994L551.5096402560764,237.19210078896774L551.8766561848959,136.86660505879925L552.001084157986,121.54043370216483L552.2428199218749,229.8279605253303L552.364962109375,265.52364666126755L553.2284713758681,242.68155903138273L553.4701434244793,255.42657805989708L553.7233718315972,230.87454644149858L554.7088958550346,203.79370402876316L554.8326388888889,22.581501386068926" style="fill: none;" fill="none"></path></g></g></g></g><g opacity="0.2"><g><g><g><path stroke="rgb(255, 112, 67)" stroke-width="2px" d="M57.34375,77.31819319725032L58.087426757812494,90.969456911087L58.593214561631946,-36.38501000404365L58.97110190972223,248.27304053306574L59.72511647135416,38.76922595500944L61.21476373697917,157.7560948133468L61.718576367187495,135.96610593795776L61.968220789930555,180.4138230085373L62.21989613715278,81.1481373310089L62.34784437934027,157.27006065845487L62.59501187065972,93.00002324581142L63.342774370659725,-10.181848526001042L63.46748109809028,28.469820499420138L63.59380460069445,-68.92313790321354L63.716122005208334,170.17618882656095L64.84299040798611,192.46604311466217L65.58126729600694,22.28568363189694L65.70598995225694,223.22488296031952L65.82810028211807,-75.87093544006355L65.95340434027777,-3.111134290695209L66.57734416232638,272.3312305212021L67.56006471354166,249.66668057441706L68.42441820746528,263.69620728492737L69.4168314453125,-54.753045558929514L69.79641521267362,186.2608777284622L69.92269889322917,133.00002086162561L70.81392430555556,188.65575063228604L71.43724290364582,-42.00000000000002L72.42383415798611,-177.6459617614747L72.7988224609375,4.761104464530889L72.9223584201389,120.87125945091242L74.06408044704861,282.3455618619918L74.3133744357639,136.12500894069666L74.43690243055556,297.1050785779953L74.56219055989584,157.82700347900385L75.43372795138889,-121.14571166038517L76.06312339409722,263.40168285369873L76.31311825086806,207.99998509883878L76.43858159722224,86.94737720489499L76.94114381510417,137.9999892711639L77.58508226996527,238.36648035049433L77.71817552083334,327.71828341484064L78.09193730468749,245.2197121381759L78.84734563802083,326.4905558824539L78.97300809461805,169.8834167718887L79.2313576171875,293.47715842723846L79.60429110243055,157.999988079071L79.85614963107638,152.44445371627802L79.98146165364582,180.31268584728238L80.23468209635416,157.27006065845487L80.48470084635417,218.46511530876154L80.61034737413193,233.4752844572067L87.35014945746529,315.6086729764938L88.34671215277777,-52.2940857410431L88.46825700954862,-115.50005507469177L88.5936168185764,46.31777572631832L89.0827669704861,53.454517006874056L90.32455384114584,81.8461464643478L90.44523057725694,425.89474189281464L90.6946918185764,223.90906083583826L91.18183493923611,297.39397037029266L91.54345099826388,411.4090965986252L91.67121605902777,148.15745222568506L91.79631304253472,110.06898450851435L92.16781293402778,104.92832529544827L93.66336979166667,72.54547047615046L94.4105747829861,-37.116251707077026L94.79257176649307,-36.5595592260361L95.04393650173611,114.5789759159088L95.16544153645833,182.05855357646942L95.41065774739583,115.8947603702545L95.9068484375,154.87499999999994L96.40315062934027,154.1538344621658L96.64765004340278,155.09899127483365L97.27327832031251,104.511635184288L99.01845570746528,245.07864582538602L99.64178226996529,328.143860578537L99.7719286892361,61.84614765644071L100.27410065104165,-194.81687378883365L100.39613930121527,162.02845144271845L100.89781746961806,257.2228031158447L101.02132157118055,-194.81687378883365L101.26647406684027,161.95685434341425L101.64448088107638,463.55556714534754L102.26842866753472,-85.15064549446109L102.39065049913194,223.30248820781708L103.14214830729166,-2.460251569747962L103.26718157552084,348.22991359233856L103.3961572265625,260.0547688007355L103.76956061197917,194.80853247642514L104.89203266059029,-0.3333045244217665L105.87439481336804,-33.732287406921394L107.48635151909723,61.090935945510815L107.85783548177083,183.0000178813934L108.34971742621526,103.38460671901701L108.85880249565972,71.95348012447351L109.10029136284722,-116.6861636638642L109.5816841796875,205.05880880355832L109.7029662109375,-160.93204450607303L109.82812690972222,-53.05261445045475L110.0721564236111,63.50239384174343L110.69811920572918,139.67156875133512L117.17877532552082,367.75608229637146L117.30121219618057,451.181848526001L119.27699110243054,133.00002086162561L120.13919420572917,165.8680336475372L120.89220525173613,132.25532341003418L121.01378993055555,-37.56961655616764L121.25892649739583,-15.880577087402381L122.00977918836804,60.14008390903467L123.12415143229168,275.1140670776367L123.37348524305555,79.15387022495266L123.50049368489583,247.99998271465296L123.86939717881944,152.17809247970575L124.60450423177082,162.2986303567886L125.61132508680556,248.56606292724604L125.73736983506944,0.3387318849563319L126.1243843967014,476.1222975254058L126.2508273654514,138.73767721652982L127.38073020833332,325.72151291370386L127.50630505642361,165.7540040016174L128.88772395833334,-47.329978466033985L129.2609043402778,-50.07695388793945L129.389290625,103.96414268016812L129.6359404296875,169.51078641414637L129.8801133029514,404.5517342090606L131.61913420138887,113.41514754295346L132.23655913628474,216.83722007274625L132.48451510416666,0.936792969703637L132.8656519314236,-15.529413342475909L133.72868333333335,282.8879224061966L133.85260158420138,-276.3749821186066L134.59783936631942,213.65215051174158L134.84554047309027,178.49997746944422L134.973568359375,81.52940440177916L135.2270356987847,-200.780461549759L135.34893098958332,-195.24320197105413L135.7141708550347,11.571403026580787L135.96356838107639,261.33331525325775L136.58050748697917,396.8059794902801L136.70305585937498,401.81445944309235L137.8149113498264,143.93747913837427L138.06477877604166,154.52408659458155L138.55840492621525,-5.157910108566293L138.68730889756944,200.83389151096344L139.3116867621528,377.9999749660492L139.80884114583333,259.48512125015253L139.9333407986111,-167.22933483123782L140.3077158420139,253.31249999999997L140.56017966579861,38.76922595500944L140.80890818142362,326.7022805213928L140.93214149305558,358.42373836040497L141.05320052083334,225.2727227210998L141.17385336371527,87.06979322433466L147.2388150824653,242.29605960845944L147.3628209418403,109.49251520633695L147.98281838107638,287.4117450714111L148.110734765625,179.71312272548676L148.9777802300347,57.473655223846386L149.22468489583335,82.44445788860317L149.9634476128472,114.25002980232237L150.2199573567708,142.21051204204554L150.83499296875002,299.9540047645569L151.449574609375,107.99999105930327L151.69116701388887,353.54793834686274L153.19295203993056,295.7622574567795L154.0525428168403,58.96154808998105L154.1765327473958,91.2089692354202L154.4215578125,-215.30102920532232L154.5450937717014,350.7480787038803L154.67035004340278,-52.9756350517273L154.79100288628473,419.2970441579819L155.03454657118053,253.31249999999997L155.40818092447915,199.66668355464932L155.89716382378472,190.30085670948029L156.52536460503472,251.999969959259L156.90918543836807,-31.17525708675391L157.40817163628472,278.83336114883423L157.79079780815974,8.3424614667892L157.91126746961805,32.03847277164455L158.16179594184027,183.0000178813934L158.2893300347222,106.30506742000577L158.53300911458334,304.39177322387695L158.65840874565973,278.52631974220276L158.78239071180556,234.31579935550687L159.1464996310764,48.86535573005671L159.2669533637153,-47.329978466033985L159.89945492621527,265.5757563114166L160.02279973958332,385.77777314186096L160.89224249131945,67.99999344348903L161.27121299913193,203.0000166893005L161.76576302083333,200.30767786502835L162.1335037109375,-235.90246868133548L162.38192161458332,-32.707960724830656L162.6292006076389,87.09833192825315L163.1300026909722,-74.66667723655708L163.6164449435764,-101.60696339607242L163.98974479166665,368.8695924282074L164.1150169921875,300.2651767730713L164.23793969184027,23.624999999999957L164.35856067708332,38.76922595500944L165.10151267361113,191.88625681400296L165.8519910373264,38.76922595500944L166.10400088975695,-172.0603866577149L166.22836514756946,156.4931319952011L166.7218638671875,194.1244171857834L167.0912611545139,119.2852960824966L167.21290158420138,60.52523124217985L167.58841553819445,49.66669249534605L167.71312226562497,229.6216206550598L167.83541577690968,276.3257728815079L168.0793815755208,171.71684074401853L168.33195690104165,-216.9999582767487L169.08741302083334,241.57664644718167L169.45584661458332,-18.136386394500807L169.5797887586806,-91.60627555847175L169.94589674479167,269.2377852201462L170.07435470920137,147.3442869186401L170.19658450520834,299.2499874830246L170.44879346788193,47.590439200401285L170.57659038628472,97.24728333950041L171.32667849392362,151.529400229454L177.66809283854167,3.6521630287169944L177.7901792751736,-14.123882174491929L178.03682907986112,152.68083679676053L178.28535848524305,199.66668355464932L178.53186493055557,376.02510917186737L178.6548115234375,330.22224175930023L178.77679442274305,42.482762217521646L178.90222591145832,-38.23658359050751L179.02952903645834,60.14008390903467L179.39982630208334,-130.6666238307953L179.90350353732637,331.140487074852L180.27399991319444,267.83607172966L180.52053821614584,419.9999974966049L180.6431025173611,75.48251616954799L180.76647122395832,279.6216176748275L181.49815358072917,263.12818694114685L181.62096477864583,185.14286148548123L181.86613320312503,-175.95066261291512L182.24515149739582,364.8749874830246L182.73914401041668,171.15789520740506L183.11839327256948,214.18556141853327L183.4957310763889,112.736852645874L183.62370321180555,327.9288189411163L183.87130078125003,80.83020615577695L184.1267910807292,-34.164185643196106L184.99643294270834,461.20757031440735L185.3595861328125,207.59017932415003L185.6072792751736,474.2500083446502L187.95219264322918,298.540525317192L188.20401931423612,132.2914974689483L188.32161382378473,121.76146674156186L188.83000598958333,196.63638639450068L189.0773646267361,166.29961895942682L189.57541898871528,258.877171754837L189.8183175564236,385.77777314186096L190.06903717447918,75.71301627159116L190.43557523871527,204.29627466201782L190.68316484375,290.7464550733566L190.80669283854164,-2.5263411998748873L191.0487631076389,194.34684383869165L191.54356799045138,35.06420123577113L192.03657291666667,134.80409252643585L192.90937664930553,124.73819124698635L193.03530989583334,314.796133518219L193.15886974826387,241.2236677408218L193.28649144965277,255.4402606487274L193.9000536458333,-12.189258456230181L194.15368027343752,128.93025147914884L194.52338020833332,312.4585883617401L194.6447179904514,176.11593174934384L194.7670035373264,416.88890326023096L194.89182973090277,191.7455660104751L195.8883287109375,136.72338294982907L196.01307526041668,142.54546630382535L196.38588131510417,244.36361360549927L197.25743463541667,31.78381490707393L197.6268398871528,49.74755215644833L198.6244937065972,28.673096179962126L198.74932786458334,207.50493872165677L198.99547591145833,76.54839920997617L199.11998352864583,110.56409347057337L199.24688046875,310.76679396629333L199.6200050998264,286.125L199.74166942274303,101.02327930927274L199.99412528211806,238.69304823875422L200.2492731119792,154.52408659458155L200.87756946614581,174.99998080730435L201.00169479166667,174.41218364238736L207.32456002604167,176.40000450611115L207.45064459635415,-187.72951197624215L207.57699199218752,321.6186987161636L207.69944479166668,279.67631685733795L208.0632271701389,96.0000293254852L208.18381629774308,-243.36984586715707L208.30995661892362,81.23944866657251L208.67908311631945,151.776798248291L208.8027703993056,214.83450400829315L209.8034029079861,325.3144608736038L210.30006349826385,314.9999724626541L210.55207335069446,356.837211728096L210.80058682725695,101.95160079002378L210.929809375,186.2608777284622L211.30002699652778,290.7464550733566L211.79969016927083,99.62788689136501L211.9248747612847,117.09088253974912L212.04751870659723,211.44828665256497L212.42840067274307,158.19456446170804L213.41942810329863,239.70729875564572L213.6650425347222,-166.75243806838998L214.16004652777775,149.73915982246393L214.2865611762153,-22.06327450275423L214.65179307725697,214.2201082706451L214.89708096788195,58.36761760711665L215.14817491319442,225.64704287052152L215.7673679470486,-37.20549774169924L216.64222649739582,67.56521630287166L216.7649261935764,301.8053280115127L217.13810657552082,-65.16178679466252L217.3802963107639,191.33331942558289L218.1314755425347,135.397271990776L218.2607140190972,183.2727001905441L218.50909210069446,60.14008390903467L218.75847369791668,-38.64538800716407L219.2487070095486,80.83020615577695L219.7500347439236,23.82089066505427L219.99987827690973,51.66196095943446L220.6195810329861,218.63828766345975L220.74711512586802,36.235289454460094L220.8706670138889,-137.45457959175116L221.7238066189236,146.24698626995084L221.8429302951389,217.09093916416168L222.5643146701389,-89.7272272109986L223.0646149956597,236.72725725173945L223.1869562934028,280.4999964237213L223.30758524305557,54.98797166347499L224.4165974392361,30.413769364356977L224.6694435546875,-18.666668057441722L225.0330029296875,116.33335518836972L225.78458834635418,121.47307562828061L225.90273240017362,155.36841917037958L226.40245928819445,96.0733788013458L226.77602196180555,-160.77833604812628L227.02140542534724,269.71874999999994L228.7578697482639,331.33331108093256L229.13097845052084,555.9166701436043L229.50193676215278,329.05265557765955L229.6309761284722,288.8219075202942L229.76063671874996,209.59746408462522L230.13510733506942,330.34040200710297L230.25813357204862,44.776873469352694L230.38800123697916,353.7692384719848L238.47297619357636,179.48437499999997L238.84225401475692,145.6426041126251L239.09191436631946,116.68170261383051L239.22066701388886,-92.60237646102907L239.95272369791667,204.4285790920257L240.07985957031252,227.4078683853149L240.32067146267357,86.41728329658505L240.5668434027778,103.69377601146695L240.80963046875002,326.4905558824539L241.0533732638889,174.5369778871536L241.4213608506945,152.44445371627802L241.66896638454864,205.05880880355832L241.92100013020834,99.66668951511379L242.1687808810764,263.09432852268213L242.41238031684028,331.489961028099L242.6609495442708,270.16216385364527L243.89893739149306,149.82690382003784L244.38136558159724,181.0570077896118L244.86228053385418,218.17697453498837L244.9800184027778,-67.60973167419438L245.10276588541666,191.9999735355377L245.34755201822918,217.20503139495847L245.72441195746526,41.52271020412441L246.09557734374997,149.23710393905637L246.34164574652777,-243.2953698635102L246.7179242838542,191.33331942558289L247.46621243489582,233.96156895160672L247.71427194010417,0.3387318849563319L247.95794305555557,112.78084981441495L248.08116043836807,149.6058540344238L248.45536822916668,111.87931466102594L248.58048114149307,113.11361360549922L248.70161184895835,247.655202627182L249.06889060329863,167.99998748302457L250.05251113281247,-145.12498211860662L250.66752285156252,73.67794382572171L250.91583721788191,20.22219765186305L251.66250859374998,219.46246790885922L252.16235494791664,210.60871052742L252.28542100694443,-64.82608151435856L252.40612960069444,112.78084981441495L252.52710101996527,94.95655167102812L253.27648825954864,199.05059802532196L253.65217743055553,188.48783540725705L254.52317324218748,151.6170190572738L254.76541076388887,195.391322851181L255.14149019097223,104.58116698265071L255.2622863932292,81.79914522171018L255.6433754340278,204.6443091630935L256.38742651909723,60.68138051033014L256.6373815538194,127.61540579795833L257.01746707899304,180.72724807262418L257.39847647569445,21.636365532875036L257.5229363064236,164.6264748573303L257.6438360460069,152.44445371627802L257.76769854600695,305.5862056016922L257.8941255859375,146.46152722835535L258.6368864366319,218.40002703666684L259.38038001302084,310.8688699007034L260.1198834201389,107.05364513397214L260.8818783203125,-93.9011378288269L261.50844639756946,75.75701344013211L267.8234029730903,127.61540579795833L268.6978155164931,330.1052706241607L268.9469422526042,241.33331644535062L269.30927510850694,275.4418866634369L269.55801158854166,148.54053425788874L269.6809103949653,0.2600626945495046L270.048491796875,385.77777314186096L270.1718127170139,60.94117033481593L270.41779351128474,144.1204147338867L270.54085957031253,81.52940440177916L270.91338687065974,211.44828665256497L273.0202281032986,124.25002920627591L273.1462967447917,71.85540962219237L273.2696654513889,159.32741332054135L273.89048322482637,-61.81136798858646L274.2584548828125,25.910474538803083L274.76146310763886,-127.13508439064027L274.8862893012153,215.05392658710477L275.00947482638884,307.9999791383743L275.50261514756943,90.16780722141262L275.6285722873264,111.46156060695644L275.7529684027778,261.1690299510956L276.00354466145836,60.2727012634277L276.4992097005208,232.13790822029108L276.7400295572917,125.25664436817166L277.7145706597222,175.241370677948L278.3401909722222,-88.01590633392341L278.46469858940975,-220.4999549388886L279.5744833333333,322.28572833538055L279.6989431640625,87.57447767257685L281.06307133246526,246.64539563655853L282.0518766927084,-126.5971047878266L282.17982493489586,271.4328246116638L282.54363917100693,255.6377785205841L282.7955056640625,175.80188083648676L282.91509127604166,263.17243444919586L283.89923745659723,8.43665170669552L284.02597510850694,77.07217204570767L284.1545445746528,248.8450663089752L284.2821981336806,167.99998748302457L284.6675959201389,54.75765931606288L284.90815295138884,-68.03305578231814L285.15273200954863,-153.50447130203256L286.13647200520836,90.52429068088526L286.76167020399305,266.82351100444794L286.89043081597225,263.09432852268213L287.26242450086806,145.09091842174527L288.1283947699653,184.70451700687406L288.38946015625,199.8367266654968L289.6381680989583,232.203810095787L290.26053096788195,143.29410660266873L290.3833103081597,118.34483313560483L290.64361907552086,70.26412653923033L290.77557341579865,-105.63630294799806L291.5206120876736,105.36842215061186L298.1876035373264,24.35686755180356L298.3086546006944,-119.36842632293708L299.4347345269097,406.9899158477783L299.92142367621534,272.1732037067413L300.1710760633681,235.19999849796292L300.67479312065973,198.73172807693476L301.7996624565972,102.11763846874234L302.05257228732637,337.93420064449305L302.4263340711806,247.81898725032804L302.6746404730902,179.71312272548676L302.7995781684028,137.88045215606687L303.41063953993057,373.62497913837433L303.7770581380208,181.0088800191879L304.39681664496527,57.32432770729059L304.64601506076394,109.54640078544612L305.39061569010414,305.1428543329239L305.51824535590276,228.4013407230377L305.64603430989587,247.42307531833643L306.1299996310764,340.21754729747767L306.75412263454865,153.2631890773773L307.12657825520836,233.33334195613858L307.3742873263889,16.98874998092648L307.73900154079865,107.99999105930327L308.09783802083336,413.11947870254517L308.5883978732639,218.25639474391934L309.45893971354167,277.2000210285186L309.58218895399307,275.1874791383743L309.70357452256945,430.27073907852173L310.5684218098958,-264.3529279232025L310.81601141493053,339.8181931972503L311.0587029079861,-6.018702507019062L311.4372114800347,155.12646603584287L311.5586607638889,118.34483313560483L312.311783311632,272.23359811306L312.4349927300347,4.3235110044478855L313.42578919270835,113.06329536437983L313.79188921440976,-181.65514898300177L314.0382363715278,-14.471916675567627L314.1662801866319,245.57963776588434L314.4185767578125,-64.34042286872868L314.79299162326384,-5.099017739295988L315.67162530381944,349.66667461395264L315.79662671440974,248.42555987834928L316.4180019965278,63.7046681642532L316.6758019748264,-169.5701344013214L316.8019661892361,188.0796568393707L316.9316666015625,344.842131614685L318.0432831597222,106.78540635108945L318.5277183810764,35.58622169494627L318.7735558159722,201.15789341926575L318.8987244791666,75.75701344013211L319.14528667534717,188.9128493070602L319.7825828125,106.74998331069943L319.9072337890625,317.72222685813904L320.16422936197915,395.18859851360315L320.28387868923613,91.95060002803798L320.40935796440976,-21.72975969314581L320.7896664930555,319.4754170179367L321.0366985894097,201.59999299049372L321.2922605685764,114.00000321865076L328.20590182291664,118.58822572231291L328.58192549913196,406.6363738775253L329.70399932725695,93.33335030078884L330.4518574001736,74.66665971279143L330.57440577256943,-10.181848526001042L331.31262690972216,307.9999791383743L331.4359080078125,-159.5089895725251L331.5570785373264,86.28053534030913L332.5456051432292,114.5789759159088L333.2979232855903,385.50002145767206L333.42664407552087,292.0909034013748L334.42834381510414,456.2352644205093L334.5586415581597,185.93593704700467L334.92956801215274,96.8888597488403L335.299602452257,339.8181931972503L335.8001496744792,217.31173861026764L336.0437331814236,200.85717308521268L336.5454113498264,234.31579935550687L337.29531627604166,127.06778812408443L337.78882296006947,194.76472306251526L337.90765195312497,22.122149348258926L338.2817163845486,284.76346600055695L338.9014669270833,445.91821002960205L339.39124626736117,-4.307694554328993L339.8912519097222,242.9442511796951L340.1382521484375,-26.782612323760986L340.99893404947915,409.14070773124695L341.2435768229166,304.65068686008453L341.3682755859375,183.2475410699844L342.09735358072913,124.18706881999968L342.22108068576387,226.7713176012039L342.347292686632,-212.27029395103457L342.59972465277775,210.32557654380798L342.84409663628475,85.40584909915923L344.3130444010417,361.8461297750473L345.4264848090278,134.3358950614929L345.91957734375,411.3210396766662L346.54288797743055,24.455689072608898L346.67000792100697,17.274199604988056L347.2849638888889,257.0066349506378L347.41108828125,185.19299197196958L347.53177298177087,106.71243238449095L348.0424031467014,53.454517006874056L348.16630546875,217.09093916416168L348.9065575303819,-177.27608513832098L349.4065552083333,112.41178679466243L349.52847439236115,75.63484776020049L349.6575774739583,217.41174924373624L349.90294500868055,235.58620977401728L350.02707033420137,224.5384769439697L350.6485411892361,10.654847502708403L351.01569251302084,-2.1266115903855023L351.26639620225694,281.4597355127334L351.6362235677083,191.33331942558289L357.8191939453125,480.46374785900116L358.18827265625004,133.8373439311981L358.4383710503472,128.6896752119064L359.3113101779514,497.1891807317733L359.55815909288197,226.38566958904264L359.80598763020834,235.6595592498779L361.0459347222222,251.10951232910153L361.1682441623264,265.31709301471705L361.2904898871528,192.17264521121973L363.0170863064236,212.7337174415588L363.5091275390625,-52.46506762504585L363.99489281684026,186.66667807102198L364.12382068142364,294.407795548439L364.49172065972226,197.62654173374173L364.6148265407986,-1.7872138023376465L364.98811046006944,57.38271939754483L365.2355009548611,154.6431230306625L365.48450026041667,212.21050786972043L366.0973456597222,182.70818459987638L366.4749144314236,15.462680339813186L366.7295525390625,310.9411554336548L367.09143938802083,-142.79995393753057L367.454879296875,152.44445371627802L367.813851171875,87.99999225139615L368.05521260850696,263.69620728492737L368.42379752604165,86.57142984867092L368.79724073350695,258.6223887205124L368.91744756944445,149.2955582141876L369.28355555555555,264.5693289041519L369.6539882161458,41.8028401136398L370.74252391493053,178.5882221460342L370.99321963975694,397.24300968647003L371.6171355685764,239.70729875564572L372.2443806206597,358.72464644908905L372.3751960503472,167.99998748302457L372.50136822916664,250.72724390029907L372.7487985460069,341.01888406276703L372.87578309461804,366.3333402872085L373.12816727430555,163.3072482347488L373.37997801649306,196.84122669696805L373.75162923177083,193.9030544757843L373.8820305121528,-58.800034046173124L374.38233083767363,270.8571689128876L374.9934718532986,-45.84621620178226L375.2428693793403,280.00000584125513L376.1135705078125,300.2222435474396L376.245389453125,87.93308901786801L376.37289168836804,69.70211434364313L376.497415234375,295.8260940313339L376.87392473958334,349.7910307645798L377.11815336371524,237.25534844398496L377.61331664496527,142.15387272834775L377.98807398003476,213.8823376893997L378.2381564453125,-204.83420920372012L378.4811187282986,149.2955582141876L378.6056422743056,-249.62708187103274L378.73001449652776,321.6186987161636L379.2084923394097,55.49997854232783L379.70815551215276,260.54236757755274L379.8340967230902,-141.05658960342407L379.9562946614583,358.9090840816497L380.44921197916665,197.99998569488523L380.5722700737847,289.08107149600977L380.8256020182292,24.279074549674956L380.9454424913194,124.92306697368619L381.19272944878475,202.18603777885434L381.31608222656246,133.00002086162561L381.4395305772569,241.33331644535062L387.45002369791666,349.66667461395264L387.5735516927083,165.62714445590967L387.8246615668403,123.78946709632872L388.4484898871528,294.4864647388458L388.57578504774307,33.00002682209011L389.32314932725694,-51.05177593231204L389.445920703125,213.4053783416748L389.56863632812497,-65.07692170143129L390.05976961805555,178.81546783447263L390.3051769748264,113.70341348648068L390.5557134114583,141.85215103626248L391.0439396918403,18.576903820037792L392.2703393229167,358.7633864879608L392.51632011718755,-184.37283468246463L392.8923676866319,-66.23073649406437L393.3873796440972,145.20932900905603L393.6306445746528,109.16732418537136L393.75053283420135,506.04878979921335L393.8745944444445,169.24261021614075L394.2457200086805,-124.25805759429934L394.74776453993053,201.15789341926575L394.86826605902775,81.52940440177916L395.2379182074653,159.21951699256894L395.60717213541665,298.78948795795435L396.83809555121525,203.3270852565765L396.96206955295133,305.4820017814636L397.328910264757,87.57447767257685L397.45385592447917,29.59090340137476L397.7028154079861,244.36361360549927L398.07124900173613,-6.765089750289983L398.3152068359375,254.9696849584579L398.4349756293403,82.09091591835019L398.6832183159722,-42.00000000000002L398.80145794270834,147.99998867511746L398.92011968315967,292.5132887363434L399.04671397569444,45.49997913837429L399.2914523220486,179.9511955976486L399.53118105468747,239.94443285465238L399.6563815755208,249.66668057441706L400.1522775824653,-92.68961977958683L400.2726277777778,189.35595023632047L400.5242234809028,263.09432852268213L400.89999229600693,203.4023122787475L401.5248480251736,219.21951341629028L403.0103219401041,-27.874468088150042L403.51339388020835,381.3870685100555L403.88569021267364,331.140487074852L404.49142339409724,207.59017932415003L404.7434730685764,46.31777572631832L405.1253744791667,257.99998211860657L405.863149609375,-120.6343932151795L405.9882545572917,134.54868364334104L406.2315752387153,126.43004822731017L406.60289194878476,-16.63766634464264L406.9722733072917,-1.3023061752319802L407.09445531684025,120.50000596046446L407.22440262586804,123.78946709632872L408.34852330729166,5.297269105911236L408.47229023437495,355.29731082916254L408.59655891927076,137.72974777221674L408.72303374565973,384.1506289243698L408.9723914496528,366.3333402872085L409.2224978081597,359.85186266899103L409.59979578993057,533.8064657449722L410.22450815972223,-248.62647485733032L410.47375436197916,89.74905180931088L410.59874780815977,302.7761446237564L410.72854379340276,-145.52114439010623L410.8535531684028,159.59997045993802L417.60435410156254,34.36362612247463L418.7127530381944,96.15786838531491L419.31709244791665,132.2152690887451L420.2973918185764,152.1176354885101L420.4241215060764,-29.349405884742737L420.7953585720486,128.93025147914884L421.28696972656246,247.655202627182L422.1438287109375,172.1790926456451L422.5174391710069,283.29409825801844L422.89407610677085,149.2955582141876L423.01640944010416,230.22224771976465L423.1414904947917,94.95655167102812L423.3992187934028,-104.19509840011604L424.3901028645833,271.2786780595779L424.6324518880208,162.66099679470057L424.87877515190974,156.42522740364072L425.12961423611114,-80.88886570930482L426.34769902343754,182.626886844635L427.33487964409716,-100.11806917190557L427.46241373697916,201.93939077854154L427.58691338975694,167.99998748302457L428.08502350260414,-183.17646217346194L428.82508441840275,62.612562060356105L429.8142163194445,89.90951943397519L430.5554002170139,6.165133595466585L430.67923085937497,129.3389307260513L430.8014128689236,120.19509243965146L430.9274257595486,228.81446349620816L431.1787427083333,57.056589603424044L431.4129998914931,77.99999284744261L431.77779375,92.82491075992581L432.526647374132,271.30646574497223L432.77391043836803,260.54236757755274L433.64610887586804,286.41407954692835L434.147038389757,181.0088800191879L434.4030782335069,96.9705955982208L434.8830772786458,89.24999999999997L435.00720260416665,421.95345926284784L435.25859123263893,-46.751193523407046L435.88070720486115,92.36021804809567L436.2572087456597,169.4334315061569L436.50833454861106,127.61540579795833L436.88122024739585,401.15587878227234L437.0043978081597,-93.6392827033997L437.1292240017361,25.431199550628605L438.37755761718756,102.66669559478756L438.4990307942708,212.68083322048184L438.7530875,310.7027070522308L438.88289941406254,214.83450400829315L439.0038310112847,261.33331525325775L439.1300907986111,5.561001777648874L439.6343812934028,152.727274775505L439.8752728298611,160.94116437435147L440.25193365885417,35.36842632293696L440.5022072699653,326.91894936561584L440.7503942057292,298.2234703302383L440.9982944227431,135.46480107307434L447.9011359375,-42.00000000000002L448.39463465711805,188.76921701431272L448.64404014756946,474.2500083446502L448.89110410156246,178.84870040416715L449.14113081597225,239.24999105930326L449.51767217881945,14.451621651649429L449.8833899088542,13.263134837150528L450.62472513020833,173.6565964221954L450.74996547309024,185.2388041019439L451.24443585069446,149.93548858165738L451.6123039713542,203.744651556015L451.98191629774306,335.34374999999994L452.2307005642361,366.3333402872085L452.35348786892365,36.94738018512722L452.8502997829861,181.49397540092465L453.3331739800347,95.2791767120361L453.695522764757,186.62900197505945L453.8173224826389,67.305989742279L453.93802311197913,219.11111640930173L454.06304841579856,43.135146975517216L454.432445703125,305.03389406204224L454.92306927083337,256.90512228012085L455.6727034071181,81.1481373310089L455.8007790798611,192.965032339096L456.1638366970486,330.58066534996027L456.77933424479164,169.76469326019284L457.1530482421874,167.99998748302457L457.27713374565974,82.88987445831295L457.52349683159724,407.99997317790985L457.7677812065972,145.09091842174527L458.01276644965276,315.6086729764938L458.1380306857639,144.22643351554865L458.49713795572916,78.79644799232481L458.61453335503467,32.40947592258448L458.8686298828125,365.29537010192865L459.2374696614583,332.475547671318L459.3598906032987,405.8494316339493L459.60706605902783,-30.586959242820786L460.33865284288186,23.11631011962886L460.707858984375,195.73585259914393L461.08306232638887,48.271487832069376L461.2039859592014,207.99998509883878L461.69628205295146,364.45160079002375L462.44549407552086,292.6153646707535L464.04608556857636,197.99998569488523L464.5389391710069,217.9999845027923L464.7848323567708,74.66665971279143L465.40896332465275,-47.07250428199768L465.78193663194446,183.9493678808212L466.0276944227431,137.26830947399137L466.52713459201385,32.242436885833705L467.14327725694443,-52.2940857410431L467.6282301649306,49.49377048015592L468.12526508246526,244.36361360549927L468.49255976562506,249.90869629383084L469.61159118923615,51.5643285512924L470.3557378472222,-80.3212208747864L477.3936955729168,265.31709301471705L477.51418116319445,295.7622574567795L477.6325561848959,383.3845900297165L478.0051551649305,333.78945457935333L478.1315344184028,128.37737667560572L478.74614791666664,149.57043099403379L479.4762533203125,14.586804986000015L479.6036998046875,427.02014315128326L479.73058878038194,409.23965442180634L479.85895117187493,203.25548815727234L479.98531449652785,219.76469027996058L480.105529296875,398.90908169746393L480.2244777560764,208.97562074661252L481.21452556423606,215.284739613533L484.0587994574653,207.3310779333114L484.1887388020834,84.0000050067901L484.31657554253474,64.52171373367308L485.17020097656246,202.2857354879379L485.7852604817708,158.45454204082483L486.1614434461805,60.94117033481593L486.52864255642356,118.50955653190609L486.65535631510414,148.31247496604917L486.77850998263887,163.555585026741L487.2743422743055,133.5520194768905L488.25595577256945,-6.832556247711238L488.3765926866319,243.5262905359268L488.7436643663194,320.9032284021377L488.9970600260416,84.0000050067901L489.1221649739583,117.78263318538663L489.37052712673614,-2.3773891925812514L490.8507604600694,-83.99995994567878L491.0921856119792,5.727289795875508L491.4618696180556,250.2018438577652L491.7070221137153,438.66668808460236L492.3183542751736,-341.16197061538696L492.6836498914931,80.26024568080899L493.05057821180566,21.362056016921972L494.18086334635416,-143.31577849388128L494.30314889322915,176.07694137096402L495.03984086371526,178.3703641891479L495.28786851128467,293.29409766197205L495.41080713975697,-206.06250000000006L496.1555590928819,45.49997913837429L496.52469355468753,204.5217679738998L496.6499816840278,406.6363738775253L497.2693897569445,107.99999105930327L497.5209217447916,298.3448224067688L497.7695069010416,203.0000166893005L498.13478658854166,228.75469493865964L498.2592543836805,137.9999892711639L499.2567568793403,133.71430206298822L499.8815727864584,233.53192377090454L500.1390143663195,22.084535837173426L500.2654573350695,142.21051204204554L500.3867393663195,161.63635718822474L500.8951713541666,150.02335774898526L507.5914797960069,218.17697453498837L508.07530175781244,87.45206165313718L508.45284663628485,126.61310899257658L508.5802214409722,326.91894936561584L508.8299056857639,233.53192377090454L509.83002847222224,91.09856951236722L510.44443489583335,242.4827502965927L511.9165206380208,169.72839403152463L512.5206290798611,165.92079269886014L512.7679399305555,343.8139246702194L512.8871512152778,177.54543292522428L513.2535220269096,102.6108072996139L513.383541015625,46.84617984294888L514.4858073567708,19.250004172325085L515.2449828559029,84.59575045108792L515.7297366536459,358.1886695623397L516.348157139757,395.9396796226501L516.5943290798612,225.81376898288724L516.8439655381944,80.43817448616025L517.0842358506944,328.8178371191024L517.3329245442708,96.54163885116571L517.7118233723958,-162.63835859298715L517.8285816189236,-267.39267539978033L517.9522450086806,256.78051578998566L518.3174370876736,219.31220161914823L518.4470897135416,300.1348124742508L518.5692319010417,100.13976860046381L518.696208485243,72.70587551593779L519.0610660590278,341.4782570600509L519.1897151692708,113.70341348648068L519.3138723524306,111.01508009433743L519.6858102864583,395.02700436115265L519.8086931640626,26.85243952274318L520.0574535373264,375.1232610940933L520.1815071831597,149.33335947990415L520.6799438368056,176.93616914749143L520.9293333984375,211.2353103160858L521.0592169921875,189.35595023632047L521.1819405815972,81.52940440177916L521.6710349826388,210.53166854381556L521.9217386718749,139.03445470333097L522.1673451388889,160.46639549732208L522.5366548177084,119.8942469358444L523.6621772352431,232.32434856891626L524.0403751953125,186.59777212142941L524.2900435112847,282.5454579591751L524.5407790581597,217.9999845027923L524.7877633680556,84.0000050067901L525.0441377170139,272.1732037067413L525.422630360243,235.94119119644162L526.156287890625,161.73136103153226L526.6496034288194,-10.181848526001042L526.900235438368,261.71902585029596L527.2710902126736,180.3529279232025L527.7811389756945,397.99997377395624L528.2777039930556,179.42854928970334L528.7736876085069,89.78134560585016L529.2632359809028,265.5757563114166L530.0038862630208,189.35595023632047L530.3772259331597,36.35820615291592L530.8751608289931,265.0397168397903L531.122830078125,59.04603767395017L537.4495580512153,47.27125632762904L537.5647074869792,438.9160262346267L538.4304069661458,116.85606408119199L538.803396202257,369.2167507410049L538.9272427734375,-147.75542449951178L539.5427642144097,-47.07250428199768L539.6634489149307,377.9999749660492L539.7895972005208,26.088716268539386L540.0397752387153,201.01307201385492L540.4138476345486,-149.56099820137027L541.0261355251736,144.51313483715052L541.3962257161459,317.5890462398529L541.5177785373264,79.00372910499571L541.7618080512153,161.73136103153226L542.5034538845487,330.8972196578979L543.7349109157987,107.99999105930327L544.5950114149306,161.88350486755368L544.9515143229166,-111.23076510429384L545.0785705512152,37.333341121673556L545.9507450954861,257.27537441253656L546.0692953342015,307.9999791383743L546.1962400607639,129.3389307260513L546.3251519965278,326.0811882019043L546.4491259982639,229.72526121139524L546.9469175347222,435.2727102041244L547.3086610243056,51.0379897356033L548.6809766059029,87.7752499580383L548.8040824869792,230.22224771976465L550.1563118272569,19.76470220088957L550.2806920138889,349.00421369075775L550.3970520399306,234.86567008495325L550.64020546875,139.88973963260648L550.8901047526041,285.86558568477625L551.5096402560764,251.64404976367948L551.8766561848959,-13.621638536453265L552.001084157986,98.55117666721341L552.2428199218749,392.25925076007843L552.364962109375,319.0671758651733L553.2284713758681,208.41842758655545L553.4701434244793,274.54410660266876L553.7233718315972,194.0464990139007L554.7088958550346,163.17244040966028L554.8326388888889,-249.2368025779725" style="fill: none;" fill="none"></path></g></g></g></g></g></g><g transform="translate(51, 378)" clip-path="url(#clip_1)"><clipPath id="clip_1"><rect width="573" height="22"></rect></clipPath><g><g><line x1="0" y1="0" x2="0" y2="5" style="visibility: inherit;" fill="rgb(0, 0, 0)" stroke="rgb(204, 204, 204)" stroke-width="1px"></line><line x1="57.34375" y1="0" x2="57.34375" y2="5" style="visibility: inherit;" fill="rgb(0, 0, 0)" stroke="rgb(204, 204, 204)" stroke-width="1px"></line><line x1="114.6875" y1="0" x2="114.6875" y2="5" style="visibility: inherit;" fill="rgb(0, 0, 0)" stroke="rgb(204, 204, 204)" stroke-width="1px"></line><line x1="172.03125" y1="0" x2="172.03125" y2="5" style="visibility: inherit;" fill="rgb(0, 0, 0)" stroke="rgb(204, 204, 204)" stroke-width="1px"></line><line x1="229.375" y1="0" x2="229.375" y2="5" style="visibility: inherit;" fill="rgb(0, 0, 0)" stroke="rgb(204, 204, 204)" stroke-width="1px"></line><line x1="286.71875" y1="0" x2="286.71875" y2="5" style="visibility: inherit;" fill="rgb(0, 0, 0)" stroke="rgb(204, 204, 204)" stroke-width="1px"></line><line x1="344.0625" y1="0" x2="344.0625" y2="5" style="visibility: inherit;" fill="rgb(0, 0, 0)" stroke="rgb(204, 204, 204)" stroke-width="1px"></line><line x1="401.40625" y1="0" x2="401.40625" y2="5" style="visibility: inherit;" fill="rgb(0, 0, 0)" stroke="rgb(204, 204, 204)" stroke-width="1px"></line><line x1="458.75" y1="0" x2="458.75" y2="5" style="visibility: inherit;" fill="rgb(0, 0, 0)" stroke="rgb(204, 204, 204)" stroke-width="1px"></line><line x1="516.09375" y1="0" x2="516.09375" y2="5" style="visibility: inherit;" fill="rgb(0, 0, 0)" stroke="rgb(204, 204, 204)" stroke-width="1px"></line><line x1="573.4375" y1="0" x2="573.4375" y2="5" style="visibility: inherit;" fill="rgb(0, 0, 0)" stroke="rgb(204, 204, 204)" stroke-width="1px"></line></g><g transform="translate(0, 8)"><text x="0" y="0" dx="0em" dy="0.95em" style="text-anchor: middle; visibility: hidden; font-family: Roboto, sans-serif; font-size: 12px; font-weight: 200;" fill="rgb(50, 49, 63)" stroke="none" stroke-width="1px">-2</text><text x="57.34375" y="0" dx="0em" dy="0.95em" style="text-anchor: middle; visibility: inherit; font-family: Roboto, sans-serif; font-size: 12px; font-weight: 200;" fill="rgb(50, 49, 63)" stroke="none" stroke-width="1px">0</text><text x="114.6875" y="0" dx="0em" dy="0.95em" style="text-anchor: middle; visibility: inherit; font-family: Roboto, sans-serif; font-size: 12px; font-weight: 200;" fill="rgb(50, 49, 63)" stroke="none" stroke-width="1px">2</text><text x="172.03125" y="0" dx="0em" dy="0.95em" style="text-anchor: middle; visibility: inherit; font-family: Roboto, sans-serif; font-size: 12px; font-weight: 200;" fill="rgb(50, 49, 63)" stroke="none" stroke-width="1px">4</text><text x="229.375" y="0" dx="0em" dy="0.95em" style="text-anchor: middle; visibility: inherit; font-family: Roboto, sans-serif; font-size: 12px; font-weight: 200;" fill="rgb(50, 49, 63)" stroke="none" stroke-width="1px">6</text><text x="286.71875" y="0" dx="0em" dy="0.95em" style="text-anchor: middle; visibility: inherit; font-family: Roboto, sans-serif; font-size: 12px; font-weight: 200;" fill="rgb(50, 49, 63)" stroke="none" stroke-width="1px">8</text><text x="344.0625" y="0" dx="0em" dy="0.95em" style="text-anchor: middle; visibility: inherit; font-family: Roboto, sans-serif; font-size: 12px; font-weight: 200;" fill="rgb(50, 49, 63)" stroke="none" stroke-width="1px">10</text><text x="401.40625" y="0" dx="0em" dy="0.95em" style="text-anchor: middle; visibility: inherit; font-family: Roboto, sans-serif; font-size: 12px; font-weight: 200;" fill="rgb(50, 49, 63)" stroke="none" stroke-width="1px">12</text><text x="458.75" y="0" dx="0em" dy="0.95em" style="text-anchor: middle; visibility: inherit; font-family: Roboto, sans-serif; font-size: 12px; font-weight: 200;" fill="rgb(50, 49, 63)" stroke="none" stroke-width="1px">14</text><text x="516.09375" y="0" dx="0em" dy="0.95em" style="text-anchor: middle; visibility: inherit; font-family: Roboto, sans-serif; font-size: 12px; font-weight: 200;" fill="rgb(50, 49, 63)" stroke="none" stroke-width="1px">16</text><text x="573.4375" y="0" dx="0em" dy="0.95em" style="text-anchor: middle; visibility: hidden; font-family: Roboto, sans-serif; font-size: 12px; font-weight: 200;" fill="rgb(50, 49, 63)" stroke="none" stroke-width="1px">18</text></g><line x1="0" y1="0" x2="573.4375" y2="0" fill="rgb(0, 0, 0)" stroke="rgb(204, 204, 204)" stroke-width="1px"></line></g></g></g></g></svg>