<svg viewBox="0 0 625 400" xmlns="http://www.w3.org/2000/svg"><g><g><g><g><g><line x1="41.171875" y1="378" x2="36.171875" y2="378" style="visibility: inherit;" fill="rgb(0, 0, 0)" stroke="rgb(204, 204, 204)" stroke-width="1px"></line><line x1="41.171875" y1="343.6363636363636" x2="36.171875" y2="343.6363636363636" style="visibility: inherit;" fill="rgb(0, 0, 0)" stroke="rgb(204, 204, 204)" stroke-width="1px"></line><line x1="41.171875" y1="309.27272727272725" x2="36.171875" y2="309.27272727272725" style="visibility: inherit;" fill="rgb(0, 0, 0)" stroke="rgb(204, 204, 204)" stroke-width="1px"></line><line x1="41.171875" y1="274.90909090909093" x2="36.171875" y2="274.90909090909093" style="visibility: inherit;" fill="rgb(0, 0, 0)" stroke="rgb(204, 204, 204)" stroke-width="1px"></line><line x1="41.171875" y1="240.54545454545453" x2="36.171875" y2="240.54545454545453" style="visibility: inherit;" fill="rgb(0, 0, 0)" stroke="rgb(204, 204, 204)" stroke-width="1px"></line><line x1="41.171875" y1="206.18181818181816" x2="36.171875" y2="206.18181818181816" style="visibility: inherit;" fill="rgb(0, 0, 0)" stroke="rgb(204, 204, 204)" stroke-width="1px"></line><line x1="41.171875" y1="171.81818181818184" x2="36.171875" y2="171.81818181818184" style="visibility: inherit;" fill="rgb(0, 0, 0)" stroke="rgb(204, 204, 204)" stroke-width="1px"></line><line x1="41.171875" y1="137.45454545454547" x2="36.171875" y2="137.45454545454547" style="visibility: inherit;" fill="rgb(0, 0, 0)" stroke="rgb(204, 204, 204)" stroke-width="1px"></line><line x1="41.171875" y1="103.09090909090908" x2="36.171875" y2="103.09090909090908" style="visibility: inherit;" fill="rgb(0, 0, 0)" stroke="rgb(204, 204, 204)" stroke-width="1px"></line><line x1="41.171875" y1="68.7272727272727" x2="36.171875" y2="68.7272727272727" style="visibility: inherit;" fill="rgb(0, 0, 0)" stroke="rgb(204, 204, 204)" stroke-width="1px"></line><line x1="41.171875" y1="34.363636363636374" x2="36.171875" y2="34.363636363636374" style="visibility: inherit;" fill="rgb(0, 0, 0)" stroke="rgb(204, 204, 204)" stroke-width="1px"></line><line x1="41.171875" y1="0" x2="36.171875" y2="0" style="visibility: inherit;" fill="rgb(0, 0, 0)" stroke="rgb(204, 204, 204)" stroke-width="1px"></line></g><g transform="translate(31.171875, 0)"><text x="0" y="378" dx="0em" dy="0.3em" style="text-anchor: end; visibility: hidden; font-family: Roboto, sans-serif; font-size: 12px; font-weight: 200;" fill="rgb(50, 49, 63)" stroke="none" stroke-width="1px">70</text><text x="0" y="343.6363636363636" dx="0em" dy="0.3em" style="text-anchor: end; visibility: inherit; font-family: Roboto, sans-serif; font-size: 12px; font-weight: 200;" fill="rgb(50, 49, 63)" stroke="none" stroke-width="1px">75</text><text x="0" y="309.27272727272725" dx="0em" dy="0.3em" style="text-anchor: end; visibility: inherit; font-family: Roboto, sans-serif; font-size: 12px; font-weight: 200;" fill="rgb(50, 49, 63)" stroke="none" stroke-width="1px">80</text><text x="0" y="274.90909090909093" dx="0em" dy="0.3em" style="text-anchor: end; visibility: inherit; font-family: Roboto, sans-serif; font-size: 12px; font-weight: 200;" fill="rgb(50, 49, 63)" stroke="none" stroke-width="1px">85</text><text x="0" y="240.54545454545453" dx="0em" dy="0.3em" style="text-anchor: end; visibility: inherit; font-family: Roboto, sans-serif; font-size: 12px; font-weight: 200;" fill="rgb(50, 49, 63)" stroke="none" stroke-width="1px">90</text><text x="0" y="206.18181818181816" dx="0em" dy="0.3em" style="text-anchor: end; visibility: inherit; font-family: Roboto, sans-serif; font-size: 12px; font-weight: 200;" fill="rgb(50, 49, 63)" stroke="none" stroke-width="1px">95</text><text x="0" y="171.81818181818184" dx="0em" dy="0.3em" style="text-anchor: end; visibility: inherit; font-family: Roboto, sans-serif; font-size: 12px; font-weight: 200;" fill="rgb(50, 49, 63)" stroke="none" stroke-width="1px">100</text><text x="0" y="137.45454545454547" dx="0em" dy="0.3em" style="text-anchor: end; visibility: inherit; font-family: Roboto, sans-serif; font-size: 12px; font-weight: 200;" fill="rgb(50, 49, 63)" stroke="none" stroke-width="1px">105</text><text x="0" y="103.09090909090908" dx="0em" dy="0.3em" style="text-anchor: end; visibility: inherit; font-family: Roboto, sans-serif; font-size: 12px; font-weight: 200;" fill="rgb(50, 49, 63)" stroke="none" stroke-width="1px">110</text><text x="0" y="68.7272727272727" dx="0em" dy="0.3em" style="text-anchor: end; visibility: inherit; font-family: Roboto, sans-serif; font-size: 12px; font-weight: 200;" fill="rgb(50, 49, 63)" stroke="none" stroke-width="1px">115</text><text x="0" y="34.363636363636374" dx="0em" dy="0.3em" style="text-anchor: end; visibility: inherit; font-family: Roboto, sans-serif; font-size: 12px; font-weight: 200;" fill="rgb(50, 49, 63)" stroke="none" stroke-width="1px">120</text><text x="0" y="0" dx="0em" dy="0.3em" style="text-anchor: end; visibility: hidden; font-family: Roboto, sans-serif; font-size: 12px; font-weight: 200;" fill="rgb(50, 49, 63)" stroke="none" stroke-width="1px">125</text></g><line x1="41.171875" y1="0" x2="41.171875" y2="378" fill="rgb(0, 0, 0)" stroke="rgb(204, 204, 204)" stroke-width="1px"></line></g></g><g transform="translate(41, 0)" clip-path="url(#clip_0)"><clipPath id="clip_0"><rect width="583" height="378"></rect></clipPath><g><g><g><line x1="0" y1="0" x2="0" y2="378" fill="rgb(0, 0, 0)" stroke="rgb(60, 60, 60)" stroke-width="1px" opacity="0.25"></line><line x1="58.3828125" y1="0" x2="58.3828125" y2="378" fill="rgb(0, 0, 0)" stroke="rgb(60, 60, 60)" stroke-width="1px" opacity="0.25"></line><line x1="116.765625" y1="0" x2="116.765625" y2="378" fill="rgb(0, 0, 0)" stroke="rgb(60, 60, 60)" stroke-width="1px" opacity="0.25"></line><line x1="175.1484375" y1="0" x2="175.1484375" y2="378" fill="rgb(0, 0, 0)" stroke="rgb(60, 60, 60)" stroke-width="1px" opacity="0.25"></line><line x1="233.53125" y1="0" x2="233.53125" y2="378" fill="rgb(0, 0, 0)" stroke="rgb(60, 60, 60)" stroke-width="1px" opacity="0.25"></line><line x1="291.9140625" y1="0" x2="291.9140625" y2="378" fill="rgb(0, 0, 0)" stroke="rgb(60, 60, 60)" stroke-width="1px" opacity="0.25"></line><line x1="350.296875" y1="0" x2="350.296875" y2="378" fill="rgb(0, 0, 0)" stroke="rgb(60, 60, 60)" stroke-width="1px" opacity="0.25"></line><line x1="408.6796875" y1="0" x2="408.6796875" y2="378" fill="rgb(0, 0, 0)" stroke="rgb(60, 60, 60)" stroke-width="1px" opacity="0.25"></line><line x1="467.0625" y1="0" x2="467.0625" y2="378" fill="rgb(0, 0, 0)" stroke="rgb(60, 60, 60)" stroke-width="1px" opacity="0.25"></line><line x1="525.4453125" y1="0" x2="525.4453125" y2="378" fill="rgb(0, 0, 0)" stroke="rgb(60, 60, 60)" stroke-width="1px" opacity="0.25"></line><line x1="583.828125" y1="0" x2="583.828125" y2="378" fill="rgb(0, 0, 0)" stroke="rgb(60, 60, 60)" stroke-width="1px" opacity="0.25"></line></g><g><line x1="0" y1="378" x2="583.828125" y2="378" fill="rgb(0, 0, 0)" stroke="rgb(60, 60, 60)" stroke-width="1px" opacity="0.25"></line><line x1="0" y1="343.6363636363636" x2="583.828125" y2="343.6363636363636" fill="rgb(0, 0, 0)" stroke="rgb(60, 60, 60)" stroke-width="1px" opacity="0.25"></line><line x1="0" y1="309.27272727272725" x2="583.828125" y2="309.27272727272725" fill="rgb(0, 0, 0)" stroke="rgb(60, 60, 60)" stroke-width="1px" opacity="0.25"></line><line x1="0" y1="274.90909090909093" x2="583.828125" y2="274.90909090909093" fill="rgb(0, 0, 0)" stroke="rgb(60, 60, 60)" stroke-width="1px" opacity="0.25"></line><line x1="0" y1="240.54545454545453" x2="583.828125" y2="240.54545454545453" fill="rgb(0, 0, 0)" stroke="rgb(60, 60, 60)" stroke-width="1px" opacity="0.25"></line><line x1="0" y1="206.18181818181816" x2="583.828125" y2="206.18181818181816" fill="rgb(0, 0, 0)" stroke="rgb(60, 60, 60)" stroke-width="1px" opacity="0.25"></line><line x1="0" y1="171.81818181818184" x2="583.828125" y2="171.81818181818184" fill="rgb(0, 0, 0)" stroke="rgb(60, 60, 60)" stroke-width="1px" opacity="0.25"></line><line x1="0" y1="137.45454545454547" x2="583.828125" y2="137.45454545454547" fill="rgb(0, 0, 0)" stroke="rgb(60, 60, 60)" stroke-width="1px" opacity="0.25"></line><line x1="0" y1="103.09090909090908" x2="583.828125" y2="103.09090909090908" fill="rgb(0, 0, 0)" stroke="rgb(60, 60, 60)" stroke-width="1px" opacity="0.25"></line><line x1="0" y1="68.7272727272727" x2="583.828125" y2="68.7272727272727" fill="rgb(0, 0, 0)" stroke="rgb(60, 60, 60)" stroke-width="1px" opacity="0.25"></line><line x1="0" y1="34.363636363636374" x2="583.828125" y2="34.363636363636374" fill="rgb(0, 0, 0)" stroke="rgb(60, 60, 60)" stroke-width="1px" opacity="0.25"></line><line x1="0" y1="0" x2="583.828125" y2="0" fill="rgb(0, 0, 0)" stroke="rgb(60, 60, 60)" stroke-width="1px" opacity="0.25"></line></g></g></g><g><g><line x1="0" y1="859.090909090909" x2="583.828125" y2="859.090909090909" fill="rgb(0, 0, 0)" stroke="rgb(153, 153, 153)" stroke-width="1.5px"></line></g></g><g><g><line x1="58.3828125" y1="0" x2="58.3828125" y2="378" fill="rgb(0, 0, 0)" stroke="rgb(153, 153, 153)" stroke-width="1.5px"></line></g></g><g><g><g><g><g><path stroke="rgb(255, 112, 67)" stroke-width="2px" d="M58.3828125,302.25192427201705L59.13996459960937,322.1033265547319L59.65491722330729,293.2149773932122L60.039651848958336,297.1068725912329L60.807329072265624,268.9063649392761L62.323968583984374,297.85140627576146L62.83691024414062,252.35266605873235L63.09107819661458,297.0907196801276L63.34731387369792,147.72290795298414L63.47758052408854,180.87049748053659L63.72922666341145,77.808009735622L64.4905304296875,136.6460020181979L64.61749682942708,96.37788689781462L64.74611740885416,136.70473696943628L64.87065119140625,210.28250237233758L66.01793832682291,203.0474764341537L66.76959271158854,143.05415219509268L66.89657532877604,120.06826444852923L67.02089017578125,151.37674487764116L67.14847283854166,137.07110483343322L67.78371838216145,183.46262723277312L68.78424572265625,227.60175172217907L69.66426120768229,272.61485355905603L70.67465686523438,224.00455271748442L71.06111864908854,212.119908091571L71.18969057617188,265.54502493551826L72.09706489583334,219.81225357684505L72.73167795898438,147.7603547744523L73.73614613932291,168.0762804975792L74.11792918945314,209.8173484603579L74.24370360677085,173.7283446301213L75.40611351236979,292.67521986903L75.65992468098959,271.2237528342131L75.78569098958334,300.85343989409114L75.91324932617188,233.60392291000437L76.80057888020833,200.38502463472543L77.44137889973958,172.54528840115825L77.69590363606771,258.81951666715577L77.82364036458334,231.9239613608271L78.33530895507812,269.59663472374433L78.9909155045573,347.93497796739035L79.126420390625,318.69979003341075L79.50695469726561,358.1658610254049L80.27605094726562,321.65620184506855L80.4039903938802,315.4683931811494L80.66702118164062,340.98688440992606L81.04671218098957,411.36417532632356L81.30313435872395,368.09420432479425L81.43071702148437,229.46173588313687L81.68852579101562,215.1007640084592L81.94307485351563,286.4970892647968L82.07099808268228,273.83576598781855L88.9329246451823,279.4664761276795L89.94754494791665,247.29634541556555L90.07129218424481,125.9080076665215L90.19892349934896,14.69851642515502L90.69693699869791,85.0442998409044L91.96122491210939,178.92799669699139L92.08408018880208,277.5055518467718L92.33806974934896,267.4551541726933L92.83403985026042,339.8838467871763L93.20220835286457,367.50520220405355L93.33228850260417,322.86875298081236L93.45964412109376,220.17810570361462L93.83788365885417,163.5217163829285L95.36053984374999,178.33699855756254L96.12128410807291,191.33873000722937L96.51020283528648,263.53064600771125L96.76612227213542,249.6321448178725L96.88982896484376,285.7740909123853L97.13948846679688,263.00803664526507L97.644670078125,327.71890934511356L98.14996521158854,331.2694739362584L98.39889492838542,281.28911156345976L99.03585952148438,217.20868100501477L100.81265933268229,250.76031580293784L101.44728050455731,297.2474129592129L101.57978516276042,282.4693431057834L102.09105642578123,159.01156125231944L102.21530640299478,232.02181312745705L102.7260749251302,320.85401783030943L102.85181690755208,78.07999148653805L103.10141153971354,174.20952254639727L103.48626779622396,341.6308403699904L104.1215214485677,234.42850133669586L104.2459579264323,251.84250873880728L105.01107279296875,156.5564328666863L105.13837165039062,243.80914824984134L105.26968432617187,207.5220594399616L105.64985374023438,261.4573603088633L106.79266486002605,157.19246439199418L107.03818080403646,-5.202568683695652L107.7928273079427,-7.259628590366543L109.43399249348958,16.546139571632374L109.81220770507812,172.62230332749647L110.31300249674479,195.49638192991412L110.83131213216146,178.5745856387724L111.07717675130208,141.10497577069242L111.56729235351563,213.50571084860147L111.69077200195314,-84.41909501960349L111.81820059895833,40.89243969455907L112.06665190104165,131.90053894546412L112.70395706054688,75.64760286390486L119.30204196289061,154.36843831635431L119.4266973763021,241.08105377905267L121.43827718098957,175.52451894179248L122.31610331054688,248.9788732968937L123.08275883463543,239.55755613367594L123.20654661458332,165.1981523991331L123.45612502929687,205.34955128500548L124.2205830891927,196.18795142973912L125.35514763671875,216.56573583476117L125.60899934895832,261.3489316908425L125.73830106119792,267.4143352662811L126.11389715494792,211.70285408945617L126.86232426757812,246.1747271465004L127.88738049804687,161.2907004347397L128.01571727213542,12.20581319408245L128.4097444954427,219.6954587971313L128.53847859700522,226.73830532977027L129.68885515624999,291.3300410813849L129.81670540690104,323.1459309210255L131.22315546875,228.10641209043487L131.6030897298177,169.03332013245696L131.73381046875,224.46559466292592L131.98492954101562,183.95132457119308L132.23352680013022,221.1562933444559L134.0040585677083,226.95452673909543L134.6326711751302,303.6003896052471L134.88512007812497,220.41159207280725L135.27316306315103,175.33613215685904L136.1518325,266.9634008184407L136.27799613606769,126.76183709972928L137.03673754557292,209.34809802066857L137.28892696940105,252.2649083951426L137.41927470703126,85.43806391137541L137.6773348470052,93.1587262418892L137.8014388671875,142.78519202176707L138.1732968391927,214.19847705166106L138.42721342122394,288.5959534628858L139.05533139648438,325.0523534608991L139.18010033203123,437.8114153502433L140.56649751953125,394.49009323524956L141.06906812174478,258.44273092339404L141.2003078190104,266.97500256770826L141.83599934244793,328.48734961857247L142.34216210937498,379.43138254946376L142.46891768229165,254.30767851760436L142.8500763606771,227.43558722419897L143.1071148014323,245.5500834691074L143.36035025065104,294.99827617787776L143.48581653645834,345.8850593457537L143.609069140625,375.86898687920296L143.7319081998698,223.27215118291943L149.9067663639323,253.25565598851594L150.03301919596356,338.9330617838056L150.66425092122395,392.1463856986569L151.6772413704427,383.78013517520253L151.928619921875,203.89675875071813L152.6807689388021,91.87589971065812L152.94191850260415,130.55852466748163L153.5681066015625,178.11344820780428L154.19382439453125,223.21796394421384L154.4397944270833,238.28093938836778L155.96879163411458,264.0818408879922L156.84395810221355,296.6877382330794L156.97019471679684,263.36353449702096L157.21965150065105,163.9625431946615L157.34543402669271,276.1497572511364L157.47295181966146,191.94472961701706L157.59579087890623,275.2319596185767L157.84375565755207,314.2628226772184L158.22416022460936,317.57557202429984L158.7220034407552,296.1265672468952L159.3615871516927,254.68677064820812L159.7523627766927,139.22886192727717L160.26038244140622,264.1554654052122L160.64994986653647,172.58119561386596L160.77259431640627,99.31954034417181L161.02767044596354,249.48800183878296L161.1575154427083,318.0384393090581L161.40560996093748,376.12689626032835L161.53328181966145,324.32823570097685L161.65951032552084,343.6192214720776L162.03021685872397,313.64567228754345L162.15285319986978,240.35989360690104L162.79681562174477,294.84538318562494L162.9223954296875,357.05966321659514L163.8075923893229,281.75950442853656L164.19342980143227,297.6357719042811L164.69694101562501,282.15129024661695L165.07134512695313,55.32322043703272L165.3242643359375,90.37899562780918L165.57602399739585,152.01130174014438L166.0859005598958,134.53600423300705L166.58115709309897,40.61434779015937L166.96122109375,217.18765158735914L167.08876321289063,337.4878588412649L167.2139051497396,229.19974588892077L167.33671988281247,221.83471236822461L168.09313408854166,257.6078074014035L168.8572110384115,214.10199156974832L169.11378728190104,39.469612022814935L169.24040500651043,-1.8115457745922376L169.7428458691406,162.00439244824184L170.11893659505208,106.26566702966952L170.2427811360677,94.82417782788694L170.62509936197918,92.45938118625632L170.75205765299478,144.75753234279074L170.87657521809894,255.72804967911193L171.12496165039062,190.6732191895694L171.3821055045573,125.39872210766922L172.15125851562502,185.78267209627762L172.5263680859375,227.52951314768137L172.6525560481771,144.10879120714583L173.02529787109376,196.84838907087843L173.15607537109375,238.10536667228553L173.28052806640625,265.54662432244095L173.53730702799479,218.613007663422L173.6674196126302,235.33123499578042L174.43109923502604,278.49543688702795L180.88741931640624,203.59681746336022L181.01171794596354,189.97394241782442L181.26283701822916,134.07429864494188L181.51586974934895,222.50222433966394L181.76684286458334,235.80194717482112L181.89200912760418,349.23826264304967L182.01621045247396,229.87388088128424L182.14391474609374,35.27655597905465L182.27352458984376,82.69148245994697L182.6505316015625,52.53063898768688L183.16333541341143,119.09586408330814L183.54054514322917,213.54859599792513L183.79155069335937,355.71450427844263L183.9163277376302,234.86973239661103L184.04193998046875,283.6592906098416L184.78687223307293,337.21943744740355L184.9119168652344,315.3192317156012L185.16152771484377,183.73488553149144L185.54741377929687,227.47160425923573L186.0503573828125,238.87716066456127L186.43647860026044,210.52922808375098L186.82064561523438,267.67217885131595L186.95094470052084,253.5014257633819L187.20302060221354,202.0725544548331L187.4631484667969,152.220974966934L187.7125809244792,112.37230022341323L188.3485400358073,229.4695287047156L188.71828163085937,265.9968861237526L188.97046294596353,384.2032341023411L191.35786588867188,410.9625866017633L191.61425563151042,351.29486108747847L191.7339809407552,343.9756482309672L192.2515851171875,282.6871756040632L192.50341775716143,312.3153173919124L193.0105049186198,223.40997457044583L193.25780478190103,284.01716593900045L193.5130674121094,299.4004924344939L193.8862471061198,271.50131752213105L194.1383230078125,279.81454783749734L194.26408931640623,169.30564143332225L194.51054587239582,171.49425666397067L195.0143165657552,116.4651985740216L195.5162546875,130.70426562878805L196.4048735286458,181.23476729630696L196.53308056315103,192.07251076840922L196.65888741536457,208.96891939162086L196.7888216080729,227.98505802257904L197.413501484375,107.85401732420075L197.67172379882814,221.92910894743244L198.04812265625,351.2547444211939L198.17165906575522,335.9842441358485L198.29616041341146,350.6146302883273L198.42324844401043,314.96204765985715L199.4378038769531,252.5237804425052L199.56481082031252,159.9592619400415L199.94437208007813,258.7951182657649L200.8317178515625,321.4240362914902L201.20781668619793,205.09254511029891L202.22354788411457,219.9401964775785L202.3506440234375,296.8234116543028L202.60125224609376,294.45155553750357L202.72801592773436,250.24605017708308L202.85720411783856,272.6786800219104L203.23709783528648,345.1756941193252L203.36095859374998,191.8425422706008L203.6179970345052,159.9353051919059L203.8777600065104,260.1734320941918L204.51744913085938,172.83103746141566L204.64382359375,214.23337811427834L211.08125845703125,220.07675050137948L211.20962766601562,64.12493036119699L211.33826446289063,206.80419483337303L211.46293609375,337.12226526872047L211.83331016927085,283.5387239295207L211.95608435872398,245.32913479272665L212.08451032877605,221.20438739197127L212.4603253580729,259.7337072087978L212.58625384114586,253.03652393021483L213.60500959309897,311.2667331392013L214.11067772786456,314.4956999509924L214.3672539713542,367.2047550092141L214.62027048502603,309.67648737165064L214.75183453124998,291.0572599434094L215.12876045572915,321.57109635578286L215.63747747070312,309.29016180849817L215.7649303938802,148.92355065399087L215.8897966341146,151.2336347869258L216.27758013997396,190.30302843962704L217.28656487955732,237.75717839190122L217.5366298177083,96.93284285722882L218.04060322916666,101.46627709217825L218.1694103092448,41.97620069245184L218.54126017252608,156.86606753905068L218.7909926529948,130.66263279970877L219.04663639322914,200.46510642432108L219.67704913736978,162.95474034607L220.56776002929686,204.63213375842335L220.69268303059897,308.3493031709808L221.07262540039062,83.51021422680714L221.3192035872396,45.01257518026045L222.0839941048177,172.1225974874176L222.21557436848957,193.0248789603128L222.4684530338542,169.55081205303432L222.72235339843752,-59.2556824237192L223.2214696842448,16.924565621230162L223.73188142252604,-21.94740728919381L223.98625209309895,79.15786266661148L224.6171837955729,126.54018390856066L224.74702879231768,163.47348601097437L224.87281942708333,26.53431932320395L225.74141782877604,107.42650456888686L225.86270001302083,169.05175201778815L226.59715579427086,76.0515006513689L227.1065133984375,141.12174933435833L227.23107961588542,184.271175266453L227.35389434895836,185.9416402628548L228.4830017252604,282.7428747827129L228.74042938476563,256.54327369775274L229.11056830729166,229.80829387507916L229.87577236979166,65.79667820714978L229.99606528971356,106.76445667571035L230.50484717447918,81.57418692268472L230.88517876302083,99.2339657225029L231.1350085481771,163.9078439221381L232.9029374153646,212.35567603545616L233.28280680664062,308.12651319851096L233.6604868424479,339.4997291637798L233.79186438802083,387.1449422567906L233.92387441406245,285.6523461024763L234.3051303971354,336.7589199794901L234.4303858561198,291.17791690690575L234.56260670898436,345.19541746925L242.79408053059893,247.1911357576508L243.17004962565102,243.4030832212808L243.42422568684898,161.15585139761225L243.5553194270833,234.04209615461855L244.3006408984375,298.50297675349555L244.43008045898438,285.6188025426868L244.67525583658852,189.8288580969899L244.9258883854167,248.0062926857863L245.17307472656253,296.28898346392197L245.42123411458334,293.29699736706067L245.79588959635421,277.7044617369977L246.0479817154948,370.92324133996135L246.30458228515624,314.6397231686785L246.55684468749996,309.19595370767007L246.80486622721355,308.6482029951987L247.0579395019531,338.11543025326273L248.31835955403645,325.15680109851314L248.8095292903646,335.77294362963346L249.29915836914063,302.6134360330713L249.4190296354167,176.0474796773712L249.5440012890625,269.5507306819554L249.79322291992187,313.08870745214205L250.17691152018227,320.4989582248363L250.55480238281245,228.47343632517172L250.80532951822917,250.87551864879623L251.18842618164064,262.4494198540505L251.95027323242186,228.90620708821146L252.2028275488281,88.04012783957462L252.45091395833336,140.7348745996966L252.57636402669272,220.08114404248846L252.957352421875,259.63297786281555L253.08472425781252,274.1588225841666L253.20805794921876,309.6629065210255L253.5819917545573,245.36105867646467L254.5834272721354,171.206539103251L255.2095910449219,220.16815264341363L255.46240484049477,196.74427348856943L256.2226058203125,242.1013468079854L256.73150933593746,126.16466017996174L256.8568053385417,177.06032331855943L256.9796930501302,196.41445915004903L257.1028645670573,207.40554693889305L257.8658225130208,241.40150820594945L258.2483272395833,342.7065301455157L259.1351054003906,307.77444143603094L259.3817322395833,343.6775681375419L259.76461807617187,164.687574929045L259.8876030924479,205.1885958718446L260.27560553385416,208.8644408150102L261.0331387434896,-7.559711753891637L261.2876229361979,63.60296001265082L261.67459556966145,155.8212812899059L262.06250881510414,132.2374122176581L262.18922384440106,136.46584743269008L262.3123142740885,173.7039310670359L262.4384130403646,214.68165018851698L262.56713092447916,267.88876106481484L263.3233586295573,279.8509932333492L264.0803242285156,344.67798874008054L264.8332273567708,193.51236142586652L265.6090214127604,-54.273255862874905L266.2469509440104,95.63564919889437L272.67633384440103,131.13841300122579L273.5665825390625,148.23455281671554L273.8202315332031,179.7091813970606L274.18912982096356,175.97662855592105L274.4423733789062,185.45810870315486L274.56749909830734,54.23026405889576L274.94174103515627,141.98438968089863L275.0672965169271,35.461770616067575L275.3177344563802,96.75876957844737L275.4430304589844,160.42643051482406L275.82230791341146,161.91110500189862L277.9673248795573,188.08290390135224L278.09567787109376,-43.44481776217153L278.22128200520837,-4.801664050413734L278.85334892903643,56.8011544461722L279.22798819335935,47.45201480016076L279.7401108723958,-7.722484079775713L279.8671989029948,88.77943235930788L279.9926165364583,221.47291931437726L280.49469250651043,167.13188468965618L280.62293197591146,200.37651917494426L280.7495821354167,268.91395149963984L281.0046988085938,106.49478713735488L281.5093452441406,248.73325966700097L281.75452873046873,282.2068838453L282.74672841145826,319.18368841264885L283.38368489583337,210.67777707901683L283.510448577474,203.07511861779363L284.6403425,294.4036421157224L284.76705752929684,264.8833640247601L286.1559035514323,268.83203346279646L287.1626259570313,161.10875609951734L287.2928926074219,225.3087479778922L287.66329911783856,251.82257012018698L287.91972940429685,89.43325687147303L288.0414818945312,221.24711321379291L289.0434606966146,170.1322716125797L289.17249482096355,31.78122908970687L289.30339395182295,156.14734674004572L289.4333605794271,222.88636836007856L289.82574173177085,174.99402449616085L290.0706576302083,154.14750989034562L290.31966843424476,96.35609293704834L291.3212336914063,141.71422316723616L291.95776041341145,190.61999319544108L292.08885415364585,259.8837066772079L292.4675883235677,257.99750194932903L293.3492498795573,338.3270925336777L293.61504574218753,209.02356686608732L294.88638013671874,140.70415454614385L295.5200120442708,126.2288010994903L295.6450242415365,195.04894192567434L295.91004166666664,83.61202917351535L296.04439511393235,73.36153945900975L296.8029256966146,161.60109071198255L303.5907304134115,152.11137541884432L303.71397490885414,201.29839607428244L304.86045928059895,169.0872966999671L305.35596718424483,262.3375373772246L305.6101432454427,287.4455630868461L306.1229794921875,355.9655694971716L307.2682394466146,148.67355534354442L307.5257319759114,233.40388462658117L307.9062662825521,265.8944298304586L308.159071969401,287.9396445149299L308.2862735221354,292.018923316735L308.9084072591146,403.31254323231735L309.2814653222656,350.78302098999404L309.91245378580726,224.18242201338563L310.16616764973963,245.3980385240825L310.9242603613281,321.32939057494315L311.0541945540364,228.96685076453264L311.1843071386719,191.12111276695825L311.67704185872395,234.06130313602725L312.3124739029948,214.75103991606227L312.69167027018227,274.71694042247117L312.94387591145835,343.81807424327326L313.3151987076823,329.9165851798418L313.68053726562505,367.84294921026657L314.1799860091146,354.01658562168546L315.0663019726563,342.1057062114346L315.19178447591145,391.3680818190128L316.19588776367186,378.915114346535L316.44796366536457,371.09737782311987L316.69505270182293,190.36189393463894L317.0804198079427,183.1772193685959L317.20406973958336,249.26176252936074L317.9708387858073,286.68271125962633L318.0962807454427,120.95424833780707L319.1050303320313,155.6363627011928L319.477764046224,84.14835215551685L319.60433311848954,10.009218147003327L319.72857498697914,29.750606460822763L319.8589389420573,174.70199074084027L320.1158070996094,45.93231638164906L320.49700632161455,-1.3887018791072028L321.39156074869794,146.2917600071237L321.51882717122396,121.76135094834385L322.15146170572916,86.6042715065063L322.4139329915365,6.280319917398061L322.5423832877604,118.09603530093597L322.6744338574219,220.15109374803316L323.8061927864583,180.11014666075164L324.299405921224,217.48259922691977L324.54968979492185,305.7953861741136L324.67713460937495,281.51716445482333L324.92816448567703,302.232251908867L325.577008359375,286.9237212625076L325.70391799804685,360.85787156254713L325.96557030273436,364.650100689659L326.0873876627604,336.6795864480639L326.21514060872397,245.08411372963383L326.6023402864583,281.5245806756354L326.85384857747397,253.99180473528182L327.11404131184895,137.5104938852031L334.1529488834635,159.11541354081638L334.5357941764323,325.782355257835L335.67819986002604,262.5516190762209L336.4396090397135,257.802967517288L336.5643779752604,283.70362299528045L337.3159755989583,362.1250977695582L337.44149053710936,26.878196978496277L337.56485666341143,83.66354460755241L338.57129526367186,172.87142166421188L339.3372453287761,245.22571754486944L339.46829852539065,229.30552540884645L340.4881489550781,339.6806972809968L340.62080767903643,299.99308389594177L340.9984552799479,312.8488901102924L341.37519470377606,352.75116367821386L341.8848036783854,315.26989786957034L342.13280900065104,257.368576350471L342.6435775227865,286.10535213130527L343.40707064453125,284.7404229708996L343.9095196158854,340.37739221027414L344.0305017773437,250.0734702382738L344.41134421549475,297.39969227258075L345.0423245703125,348.74655508744763L345.5409786588542,261.7829990814103L346.05004434895835,255.21393053016712L346.30152020507813,147.78039156561445L347.1777975683593,262.4139600370248L347.42687324218747,341.57504860744217L347.55383153320315,224.02435600217837L348.29612034179684,178.44535079502154L348.42208936848954,192.1022351130214L348.55058831705736,58.87003491546908L348.80759432291666,157.31278322289648L349.0563943001302,211.56368489289983L350.55195923828126,332.7149287424692L351.68557506510416,290.8192340121719L352.1876023828125,328.34121503443384L352.8222073372396,267.4339078203762L352.95163068033855,176.93341287404385L353.57772958333334,190.01331898685535L353.7061393359375,128.8069229439598L353.8290108300782,169.31800075678782L354.34889355794274,194.72565130634547L354.47504097656247,236.12565867265678L355.2287063248698,229.54707677763534L355.73775579752606,186.01523758824317L355.8618922526042,187.24077119286065L355.9933346679687,179.956637120901L356.2431482356771,135.1733122174979L356.36952269856766,178.56103444963938L357.0022545377604,3.795702701033711L357.3760586035156,63.95035408244555L357.63130501627603,219.63610811264203L358.00783361328126,288.1820592656676L364.3028387402344,355.64803377717396L364.67860511718754,325.1979080681509L364.93323526692706,239.51715448666468L365.8219919563802,355.44012667637384L366.07331374674476,353.9087095729407L366.3256329101563,214.4664629818681L367.58804770833336,203.46999164743048L367.7125733821615,244.15902290926792L367.8370341861979,235.1917051384941L369.59490823567705,352.0559867727272L370.09587331054684,116.36763947130667L370.59044060221356,207.7870390938281L370.72170462565106,309.40183272032385L371.09627091145836,174.99734918830228L371.2216074576823,203.20567203073696L371.6016471321615,146.99472135587112L371.8535284244791,159.9032801235369L372.1070395703125,259.8417479036676L372.7309896614583,275.2162066346011L373.11539993815103,196.3060407865136L373.3746520605469,137.66757300262552L373.74308815104166,62.24302560200149L374.11312166015625,169.33594697519237L374.4785980664062,202.0495981922177L374.72433294596357,150.9286323173192L375.09959658203127,207.3279156963219L375.47980653971354,201.50573756587548L375.6021915104166,226.35427184083923L375.97493333333335,257.03935110166265L376.3520700846354,233.7736460613882L377.46033804036455,281.70782189198206L377.71557634440103,352.5367465797915L378.35079756184894,367.9339360426902L378.98940822591146,440.93393085057863L379.1225859082032,394.87396246986424L379.251044313151,277.4248928405833L379.50296614908854,305.95099660633866L379.6322516438802,328.7109029176384L379.8892089973958,202.26946411386427L380.14558252278647,232.8592199722248L380.5239680175781,301.9956653728945L380.656732154948,164.11751419177656L381.1660978678385,224.71632960437702L381.7883126920573,156.91917276262623L382.0422292740886,215.0507422717448L382.92870741210936,226.21472692377134L383.0629149023437,174.5267323279133L383.1927274641927,186.75422942693265L383.3195073632813,261.12561649138695L383.7028391796875,341.26155963648694L383.9514931998698,374.61634418476865L384.4556287858073,253.58538512414245L384.8371766829427,300.3448533445494L385.0917906152344,204.59800464699947L385.3391553483073,150.46031080045105L385.46593524739586,147.67029669866557L385.5925610807291,219.19769215716104L386.0797088899739,193.06234853737183L386.58842590494794,277.623774978247L386.71664915690104,9.19141120498788L386.8410613085937,216.48460757615325L387.342910234375,225.7203000126664L387.4681981282552,218.04696349925464L387.72612041992187,190.12703296904849L387.84813238932287,239.3502362276294L388.09990015950524,155.24855837365146L388.22548807617187,226.11795072021354L388.35117329752603,318.7842988190244L394.4705758984375,332.6766492931902L394.5963422070312,211.17420657254056L394.85200216471355,286.52433506745905L395.487126077474,256.90285388138443L395.61673592122395,179.08659980219716L396.3776423600261,113.64007811196467L396.5026302311198,270.9170009687413L396.6275775585937,265.787088010222L397.1276101302083,264.4794212187752L397.3774642415365,253.9818503963929L397.63254037109374,240.56208187313413L398.12961325846356,146.93224479593306L399.3782351171875,241.7862157740442L399.62867305664065,25.45917664127311L399.8828085742187,207.09842501885487L400.01153456705725,92.85366127906859L400.5155160872396,109.6145303079242L400.76318895182294,121.57520910716217L400.88524957356765,294.87261603159135L401.0115591666667,209.6152925859292L401.38940137695306,134.10430794236012L401.90055100911457,269.8468895194998L402.02323600260416,203.4549530032482L402.3995862076823,207.07550786817765L402.7755309765625,266.43835736650317L404.02875048177077,276.3468907071888L404.15497898763016,301.94308604008023L404.52846681315106,273.41935826023416L404.6556764746094,319.58264123454956L404.90914707682293,319.206354871234L405.2842566471354,80.42146162657566L405.53262686197917,241.92941678196465L405.65457396158854,245.68621984900838L405.90731477864585,139.96807412797742L406.02769689453123,220.65039980792986L406.14850877278644,291.74589862055336L406.27739694010415,89.18601706650814L406.5265699186198,172.19424329654555L406.7706425097656,260.39393589270003L406.8981116503906,267.87170155692684L407.4029932389323,121.96686281980952L407.5255241666667,217.63797391525222L407.7816787565104,296.2106666511754L408.16425646158854,264.96695596549216L408.8004345084635,332.93121217570865L410.3128250488281,269.1518793828399L410.82501259765627,324.4357560920619L411.20405489908853,377.2645822063735L411.82076389973963,357.72434114289376L412.077380686849,223.95037173119076L412.466194000651,300.0584682224858L413.21734564453124,236.17669281648162L413.3447174804688,169.24392728878803L413.59244710611983,164.66948714386945L413.97049203450524,164.52365695251487L414.34656654296873,87.46777970950612L414.47096247721356,12.5896539762718L414.6032644173177,170.74163418263808L415.7477540429687,203.84537235528603L415.8737636132812,222.9231285090523L416.00028403320306,225.8745979861133L416.1290424609375,303.6104045436211L416.3829266080729,389.15362642645675L416.6375648665364,345.0450045579336L417.0216994466146,403.8513158118198L417.6577315364583,191.25763430243282L417.9114940527344,188.39295471587022L418.03875236653647,283.68719761201504L418.17090024088543,-56.439521809211385L418.29817477213544,81.13357517796747L425.1712913736979,16.85657377332882L426.29978248697915,37.51923789858537L426.9150724609375,125.82158712835574L427.91313474934896,187.79593345599065L428.04216076497397,189.0915151517194L428.42012460611977,178.9958690075799L428.92064370117185,176.20495637436332L429.79302887695314,289.1758598997245L430.1734091178385,341.7903717858929L430.55687067382814,284.359001569405L430.6814206738281,297.42233675485323L430.80876818359377,270.8124493496095L431.0711664908854,121.91325196949573L432.0800052734375,146.39828720797578L432.3267456347656,183.93162535656816L432.57753224934896,202.31219853602897L432.8329084016927,228.59464955485592L434.07307286132817,263.6616175027999L435.07814108723954,139.6313783496913L435.2079860839844,157.0164948010079L435.33474165690103,95.18994426608054L435.84187747070314,46.477473084861394L436.59534010091147,49.762554296584405L437.6024030729167,148.1897966493285L438.3570090332031,161.86575543100335L438.48309158203125,187.83238505458925L438.607487516276,230.95946099546663L438.7357837467448,240.419309853672L438.99165453125,262.3940991179916L439.23015642903647,219.91334246085177L439.6015603125,191.35428865744151L440.36398308268235,258.4810976973058L440.6157265266927,246.65642362193458L441.5037291048177,313.28053308384966L442.01372729817706,342.4668220475755L442.2744146647135,207.13803800837476L442.76311124023437,175.5727313632634L442.889485703125,332.27651895600843L443.14542946614586,7.922074592710157L443.7788181119792,118.30127853581074L444.16214181966143,164.95251849755175L444.4178179947916,209.00807370950406L444.7974603417969,288.6639133840831L444.9228698665364,179.2065102064087L445.0499497884115,215.73894851553555L446.32091118164067,249.71622222544354L446.4445854394531,295.2543394920488L446.703245625,339.1495474984963L446.8354097167969,298.08706836504234L446.9585325813802,344.94276558845013L447.08707207356775,194.98289323978884L447.6005083658854,166.76239263776537L447.84576483072914,219.74639632040783L448.22925071289063,278.54646150495785L448.4840592545573,320.63139829857124L448.7367433105469,260.4318847444127L448.989135452474,234.98149423887068L456.01705570312504,46.277815222299694L456.5194965657552,184.55778532478607L456.7734212565104,324.9000153221799L457.02496198242187,315.9202280320864L457.2795191536458,350.63933774698626L457.66288340494793,248.23704414322017L458.0352279003906,216.0128128673241L458.78999603515626,189.2099510149613L458.917505719401,184.94054513845126L459.4209358463542,180.5456569836389L459.7954615885417,258.11249495367764L460.17177935872394,298.4309002925191L460.4250715690104,292.1861101994816L460.55008376627603,269.0279973519333L461.0558978580729,283.00440039535744L461.5475216829427,214.68191846874856L461.91643618815107,236.6427201952406L462.04044290364584,154.30570047651932L462.1633306152343,264.1764682706417L462.29062136393225,270.0330376118879L462.66671208984377,210.85572200338973L463.166225703125,223.13771165551393L463.92944312825523,154.7203426138694L464.0598395182292,179.70104112851342L464.4294756998698,287.6684959928041L465.0561259960937,292.3475058431966L465.4366116503906,219.65617373851737L465.56294556966145,184.35270149097974L465.81376461914067,350.7673489330289L466.06248350911454,328.8237986975304L466.31190785807286,282.1655606238805L466.4394418684896,250.63167080259535L466.8050561230469,264.089185476053L466.92457871419265,242.11564740512748L467.18327944335937,302.15331511211053L467.55880255859375,264.998422061762L467.68344175455735,328.09905967349187L467.9350960026042,316.2579919342443L468.6799390592447,186.7959862338775L469.0558351757812,268.99272757129245L469.43783716145833,247.927673230453L469.56095191731777,193.07665509683005L470.0621683626303,304.300304637022L470.82495602539063,385.2073655103738L472.4545500618489,381.0422429035254L472.95633411783854,359.9449418003539L473.2066828613281,335.3308303811711L473.84212301432285,296.60282983825516L474.2218545572917,266.9096970595582L474.472065452474,231.06498926734002L474.98055542317707,147.06483806502058L475.6078625260417,149.19941486848677L476.1016027278646,163.51527147968588L476.6076438639323,190.95851702488545L476.98159388671877,231.7924647293134L478.1209020377604,125.37742530420739L478.8785325520833,30.731712417964864L486.0440173046876,179.95302625227035L486.16668608072916,210.67617588097878L486.28720604492196,339.80493604172653L486.66655647786456,251.28055495333848L486.7952176009114,161.42072466234396L487.4209759375,23.217395512960422L488.16431077148434,149.1567996124638L488.2940584635416,216.485942449474L488.42325476236977,322.5187601274436L488.5539430664062,312.93647003243217L488.68259608072924,232.58335618494226L488.8049891601562,311.17108282495684L488.92609295247394,352.013469563582L489.9340803190103,313.855120201395L492.82989214518227,282.1113274031523L492.9621859765625,234.51393300527914L493.0923391048177,243.82355666928967L493.9614321386718,216.46604695434368L494.5876364550781,303.92663284456995L494.970635813802,185.7539191598669L495.344488531901,93.52545652077816L495.47349833007814,91.23174741211179L495.5988835286458,199.29908950728125L496.1037002473958,65.05193017809037L497.1031004752604,51.35615533252892L497.2259152083333,182.24369297757133L497.5996462955729,266.59856996800585L497.85763345703117,149.35683596162744L497.98500529296876,179.1416934626299L498.23786774088546,163.39337722814608L499.7449227408854,82.27229542424557L499.99072249023436,161.14356302336842L500.36710513020836,173.32472335201814L500.61669165364583,308.31112873333444L501.2391091959635,230.78482199319674L501.6110239290365,150.70937308760838L501.9846009505209,190.47158421300546L503.1353667285156,86.28321464357037L503.25986807617187,33.78262898145475L504.00990071614575,155.75232463674215L504.26243070638014,259.73464851073857L504.3875969694011,196.77137426713202L505.1458437467448,144.98769006098945L505.52166688476564,254.08713818432102L505.64921711263025,326.0773871142502L506.27985690104174,313.88569807110696L506.53594662109373,263.2486764776073L506.7890361132812,277.9029201532547L507.1609346289062,201.19584888261332L507.287657766927,271.58144454352396L508.3032348990886,250.59040170480756L508.9393724023438,253.36093990871547L509.20147879557294,272.77651489515824L509.3302128971355,310.3647423887995L509.45369254557295,222.60824584609932L509.9713372656249,229.5576389361041L516.7889820865885,283.327987458786L517.2815708496094,266.3844014507688L517.6659568001303,252.74295865277657L517.7956396223958,238.27632628364043L518.0498481184896,239.35466317963025L519.0680930208333,197.2890328154486L519.693632421875,268.33587574395665L521.1923921972656,280.9567917816013L521.8074470182291,338.0707818338755L522.0592391145833,383.52055026598583L522.1806023860677,350.4698549065731L522.5536199055989,331.4167513672393L522.6859948242187,228.84302023618164L523.8082341113281,227.56606427239083L524.5811657877605,167.56032903751108L525.0746951627603,270.32382265555L525.704329469401,361.5798972865118L525.9549620182291,378.08805644719115L526.2091137532552,250.32013112062288L526.4537458463542,319.51803692432685L526.7069326432292,261.4427656249442L527.0927051855468,136.0468831853358L527.211579078776,125.44963148701827L527.3374832356772,177.63322926508027L527.7092925553386,262.02966900436064L527.8412944726562,299.4587794077655L527.9656498632812,289.62841705872177L528.0949272493489,297.38911588686653L528.4663960026041,305.6165722265446L528.597376220703,302.88171657367536L528.7237831184896,327.7952067020177L529.1024605273437,415.5408732443996L529.2275700292969,242.24023295320927L529.4808379134115,261.12929158300517L529.6071312890625,255.26287102579752L530.1146076692709,289.96325173479676L530.3685161425781,228.26333090149592L530.5007532128907,304.6419941241717L530.6257005403646,257.6601497548652L531.1236572786459,305.8406384147089L531.3789036914062,268.04312328320026L531.6289605208333,322.18454007432354L532.0049620507813,300.19182645048903L533.150878811849,324.75477482537156L533.5359296777344,289.5557244477797L533.7901219563802,355.09675409338377L534.0454008040365,404.63328022813613L534.2968604427084,362.85965164185325L534.5578802669271,348.69359638283925L534.9432311555989,398.75575333307717L535.6901824804687,333.85257464721843L536.1924368424479,275.77859124163365L536.4476021679687,216.6761879481052L536.8251848990885,298.3895863927978L537.3444756901042,376.65012324015316L537.8500384114584,226.7476931291061L538.3550091959635,219.877955920965L538.8534281315104,321.79347798706056L539.6074989160156,349.48103252643375L539.9876034602864,294.3462607845037L540.4945608821615,339.43998580752753L540.7467178710938,299.4761605629966L547.1880773567708,256.85364211638466L547.3053213964844,340.6310778701504L548.1867072558593,270.13414865302065L548.5664469075521,324.27857268790615L548.6925456738281,133.36488642169257L549.3192202962239,169.469004207419L549.4420917903647,263.5862289626616L549.5705258691406,125.49470523981286L549.8252371061199,202.20600671544312L550.2060876529948,194.31201800298743L550.8294701334635,181.0467774521831L551.2062663183594,230.30180825930708L551.3300216634115,140.0226562224521L551.5784729654948,172.62278052324393L552.3335492317708,284.7510541227177L553.5873282389323,276.1368795883323L554.4630136653647,263.27185575814855L554.8259763671875,229.6924642627727L554.9553348404947,206.22363340940367L555.8433130924479,282.82263130629565L555.9640114485677,302.41335040132L556.0932563997396,275.7167730026882L556.2245042057292,259.05603947632886L556.3507246028645,229.95229334133705L556.8575360677082,315.3318162902248L557.2258343098958,290.1046024694474L558.6230161002604,180.4693857936358L558.7483526464844,240.3016718703577L560.1250842350261,113.74993090097881L560.2517181770834,242.87918816594248L560.3701785253907,354.3216545788091L560.6177459765624,335.4636310640468L560.872173408203,331.07781719933007L561.502934827474,337.0872816947755L561.8765929361979,15.944075337887927L562.0032836393228,108.00114868284642L562.2493996289062,204.6577109160289L562.3737469108073,304.06601737436876L563.2529109798178,283.54114518136845L563.4989620996095,253.23070029241475L563.7567789778645,288.96388160123L564.7601605891927,284.2785547908162L564.8861458333333,135.13286285495843" style="fill: none;" fill="none"></path></g></g></g></g><g opacity="0.2"><g><g><g><path stroke="rgb(255, 112, 67)" stroke-width="2px" d="M58.3828125,302.25192427201705L59.13996459960937,334.01416792436083L59.65491722330729,265.4821621981534L60.039651848958336,301.6837413441051L60.807329072265624,232.0877821488814L62.323968583984374,337.8928186590021L62.83691024414062,187.28873956853693L63.09107819661458,362.3192313454368L63.34731387369792,-72.56560114080253L63.47758052408854,230.09080477627842L63.72922666341145,-75.85095270330255L64.4905304296875,224.5827966863459L64.61749682942708,36.10719659978694L64.74611740885416,197.11600757945666L64.87065119140625,320.5626625754616L66.01793832682291,192.2000402277166L66.76959271158854,53.089553000710225L66.89657532877604,85.59526894309302L67.02089017578125,198.33469598943535L67.14847283854166,115.61395235928622L67.78371838216145,253.04736661044035L68.78424572265625,293.80898603959514L69.66426120768229,340.1336176091974L70.67465686523438,151.08967729048297L71.06111864908854,194.29302562366834L71.18969057617188,345.6824723677202L72.09706489583334,151.21321355646307L72.73167795898438,39.6826171875L73.73614613932291,198.55015036843042L74.11792918945314,272.4289273348722L74.24370360677085,119.59485085227273L75.40611351236979,471.09550906094637L75.65992468098959,239.0465548428622L75.78569098958334,345.2979683615944L75.91324932617188,132.72965032404122L76.80057888020833,150.55667807839134L77.44137889973958,130.78568448153408L77.69590363606771,388.2308582652699L77.82364036458334,191.58062855113636L78.33530895507812,326.105644642223L78.9909155045573,465.44249267578124L79.126420390625,274.84700816761364L79.50695469726561,417.3649674849077L80.27605094726562,266.8917130903764L80.4039903938802,306.18668018687856L80.66702118164062,379.2646212491122L81.04671218098957,516.930111694336L81.30313435872395,303.189247824929L81.43071702148437,21.51303322531961L81.68852579101562,193.559306196733L81.94307485351563,393.59157714843747L82.07099808268228,254.8437810724432L88.9329246451823,287.9125413374467L89.94754494791665,199.0411493474787L90.07129218424481,-56.17449895685369L90.19892349934896,-152.11572043678976L90.69693699869791,190.56297496448863L91.96122491210939,319.7535419810902L92.08408018880208,425.37188457142224L92.33806974934896,252.37955766157674L92.83403985026042,448.5268857088956L93.20220835286457,408.9372353293679L93.33228850260417,255.91407914595172L93.45964412109376,66.1421347878196L93.83788365885417,78.53713240189984L95.36053984374999,200.5599218195135L96.12128410807291,210.8413271817294L96.51020283528648,371.81852000843395L96.76612227213542,228.78439303311436L96.88982896484376,339.98701005415484L97.13948846679688,228.8589552445845L97.644670078125,424.7852183948864L98.14996521158854,336.59532082297585L98.39889492838542,206.31856800426135L99.03585952148438,121.08803516734731L100.81265933268229,301.08776799982246L101.44728050455731,366.9780586936257L101.57978516276042,260.30223832563917L102.09105642578123,-26.175111527876425L102.21530640299478,341.5371909401634L102.7260749251302,454.1023248845881L102.85181690755208,-286.0810480291193L103.10141153971354,318.4038191361861L103.48626779622396,592.7628171053799L104.1215214485677,73.62499278675425L104.2459579264323,277.96351984197446L105.01107279296875,13.627319058504971L105.13837165039062,374.6882213245739L105.26968432617187,153.09142622514204L105.64985374023438,342.3603116122159L106.79266486002605,0.7951205166903417L107.03818080403646,-248.79511829723015L107.7928273079427,-10.345218450372837L109.43399249348958,52.254791814630686L109.81220770507812,406.7365489612926L110.31300249674479,229.80749983354045L110.83131213216146,153.19189120205965L111.07717675130208,84.90056096857245L111.56729235351563,322.1068134654652L111.69077200195314,-531.3063038219105L111.81820059895833,228.85974176580257L112.06665190104165,268.41268782182175L112.70395706054688,-8.731801258433963L119.30204196289061,272.4496914950284L119.4266973763021,371.14997697310014L121.43827718098957,77.189716685902L122.31610331054688,359.1604048295455L123.08275883463543,225.42558038884943L123.20654661458332,53.65904679731891L123.45612502929687,265.5766496138139L124.2205830891927,182.44555164683948L125.35514763671875,247.13241244229403L125.60899934895832,328.52372547496446L125.73830106119792,276.5124406294389L126.11389715494792,128.13563232421873L126.86232426757812,297.88253673206674L127.88738049804687,33.96466036709872L128.01571727213542,-211.42151766690344L128.4097444954427,530.9299272017046L128.53847859700522,237.30257512872868L129.68885515624999,388.2176447088068L129.81670540690104,370.8697656804865L131.22315546875,85.54713384454901L131.6030897298177,80.42368219549007L131.73381046875,307.61400645862926L131.98492954101562,123.17991943359375L132.23352680013022,276.9637465043501L134.0040585677083,235.6518768310547L134.6326711751302,418.5691839044744L134.88512007812497,95.6283957741477L135.27316306315103,107.72294228293678L136.1518325,404.4043038108132L136.27799613606769,-83.5405084783381L137.03673754557292,333.2274894020774L137.28892696940105,316.6401239568537L137.41927470703126,-164.80220281427555L137.6773348470052,104.73971973765981L137.8014388671875,217.22489069158382L138.1732968391927,321.31840459650215L138.42721342122394,400.192168079723L139.18010033203123,606.9500081842597L140.31210252278646,325.5003379128196L140.56649751953125,396.8947565252131L141.06906812174478,54.37168745561079L141.2003078190104,279.7734100341797L141.83599934244793,420.7558701948686L142.34216210937498,455.8474319458008L142.46891768229165,66.62212246981535L142.8500763606771,187.12745028409088L143.1071148014323,272.72182783647014L143.36035025065104,369.1705652410334L143.48581653645834,422.2152340975675L143.7319081998698,-5.623102361505667L149.9067663639323,298.23091319691054L150.03301919596356,467.4491704767401L152.6807689388021,-76.1553888494318L152.94191850260415,188.58246210271662L153.5681066015625,249.44583351828837L154.19382439453125,290.87473754882814L154.4397944270833,260.8754025545987L155.96879163411458,302.783193137429L156.84395810221355,345.59658425071024L156.97019471679684,213.37722889293323L157.21965150065105,14.861056241122167L157.34543402669271,444.4305783358487L157.47295181966146,65.63718816583805L157.59579087890623,400.1628046209162L157.84375565755207,372.8091172651811L158.22416022460936,322.54469604492186L158.7220034407552,263.95306008078836L159.3615871516927,192.52707575017757L159.7523627766927,-33.9580011541193L160.26038244140622,451.54537062211466L160.64994986653647,35.2197909268466L160.77259431640627,-10.572942560369334L161.40560996093748,463.2595816872337L161.53328181966145,246.6302448619496L161.65951032552084,372.5557001287287L162.03021685872397,268.6853485107422L162.15285319986978,130.43122558593748L162.79681562174477,376.5736175537109L162.9223954296875,450.3810832630504L163.8075923893229,168.80926624644886L164.19342980143227,321.45017311789775L164.69694101562501,258.92456776012074L165.07134512695313,-284.91888427734375L165.3242643359375,142.9626584139737L165.57602399739585,244.459760908647L166.0859005598958,108.32305797230113L166.58115709309897,-100.26813687411224L167.08876321289063,517.9381697221236L167.2139051497396,66.76757646040483L167.33671988281247,210.78716208718038L168.09313408854166,311.26744995117184L168.8572110384115,148.84326782226563L169.11378728190104,-222.47895729758525L169.7428458691406,407.7282997824929L170.11893659505208,22.657578901811082L170.2427811360677,77.66194402521307L170.62509936197918,88.91218622381037L170.75205765299478,223.20475907759234L170.87657521809894,422.18382568359374L171.12496165039062,93.09097345525568L171.3821055045573,27.486976484818914L172.15125851562502,276.35859707919036L172.5263680859375,290.14977472478694L172.6525560481771,18.977708296342332L173.02529787109376,275.95778586647725L173.15607537109375,299.99083307439633L173.28052806640625,306.708510797674L173.53730702799479,148.21258267489347L173.6674196126302,260.4085759943182L174.43109923502604,343.2417397238991L180.88741931640624,91.24888832785867L181.01171794596354,169.5396298495206L181.26283701822916,50.22483298561788L181.51586974934895,355.14411288174716L181.76684286458334,255.75153142755684L181.89200912760418,519.3927358453924L182.01621045247396,50.827308238636384L182.14391474609374,-256.6194313742897L182.27352458984376,153.81387218128552L182.6505316015625,7.289373779296891L183.16333541341143,218.94370172674007L183.54054514322917,355.22769386985084L183.79155069335937,568.9633666992187L183.9163277376302,53.60257457386365L184.04193998046875,356.8436279296875L184.78687223307293,417.5596577037465L184.9119168652344,282.4689231178977L185.16152771484377,-13.6416337446733L185.54741377929687,293.07668235085225L186.0503573828125,255.98549527254968L186.43647860026044,168.00732921253552L186.82064561523438,353.3866050026634L186.95094470052084,232.24529613148084L187.20302060221354,124.92924749200995L187.4631484667969,77.44360573508523L187.7125809244792,52.5992881081321L188.3485400358073,405.115371426669L188.71828163085937,320.78792225230825L188.97046294596353,561.5127560702236L191.35786588867188,451.1016153508967L191.61425563151042,261.7932728160511L191.7339809407552,332.9968289462003L192.2515851171875,190.7544666637074L192.50341775716143,356.75753007368604L193.0105049186198,90.05196033824575L193.25780478190103,374.9279529918324L193.5130674121094,322.47548217773436L193.8862471061198,229.65255515358663L194.1383230078125,292.2843933105469L194.26408931640623,3.542281827059658L194.51054587239582,174.77717950994318L195.0143165657552,33.921611439098L195.5162546875,152.0628662109375L196.4048735286458,257.0305197975852L196.53308056315103,208.3291259765625L196.65888741536457,234.31353232643824L196.7888216080729,256.5092659690163L197.413501484375,-72.34254372336652L198.04812265625,545.2431976318359L198.17165906575522,313.07849370783026L198.29616041341146,372.56020951704545L198.42324844401043,261.48317371715194L199.4378038769531,158.86637961647727L199.56481082031252,21.11248418634587L199.94437208007813,407.04890275435014L200.8317178515625,415.36741333007814L201.20781668619793,30.59530833851208L202.22354788411457,242.21167352849787L202.3506440234375,412.1482344193892L202.60125224609376,290.8937713623047L202.72801592773436,183.93779213645243L202.85720411783856,306.3276247891513L203.23709783528648,453.9212152654475L203.36095859374998,-38.15718550248577L203.6179970345052,112.07444957386365L203.8777600065104,410.5306224476208L204.51744913085938,41.817445512251425L204.64382359375,276.33688909357244L211.08125845703125,228.84180908203123L211.20962766601562,-169.8027998490767L211.46293609375,532.5993709217419L211.83331016927085,203.1634119207209L211.95608435872398,188.0147510875355L212.08451032877605,185.01726629083805L212.4603253580729,317.5276869340376L212.58625384114586,242.99074901234022L213.60500959309897,398.6120469526811L214.11067772786456,319.339150168679L214.3672539713542,446.2683375965465L214.62027048502603,223.38408591530538L214.75183453124998,263.1284188010476L215.12876045572915,367.341850974343L215.63747747070312,290.868759987571L215.7649303938802,-91.62636607776987L215.8897966341146,154.69876098632812L216.27758013997396,248.90711891867898L217.28656487955732,308.9384033203125L217.5366298177083,-114.30366044477987L218.04060322916666,108.26642844460225L218.1694103092448,-47.25891390713779L218.54126017252608,329.2008678089489L218.7909926529948,91.35748069069602L219.04663639322914,305.16881686123935L219.67704913736978,106.68919122869318L220.56776002929686,267.1482238769531L220.69268303059897,463.92505728981706L221.3192035872396,-12.73388338955965L222.0839941048177,362.78763094815343L222.21557436848957,224.37830116965551L222.4684530338542,134.33971169211648L222.72235339843752,-402.46542413884936L223.2214696842448,131.19493768865414L223.73188142252604,-80.25536665482953L223.98625209309895,230.81576760031962L224.6171837955729,197.6136657714844L224.74702879231768,218.87343916459517L224.87281942708333,-178.87443070845174L225.74141782877604,228.7647824374112L225.86270001302083,261.4896231911399L226.59715579427086,-63.44887639825993L227.1065133984375,238.72712235884237L227.23107961588542,248.99531416459516L227.35389434895836,188.44733775745738L228.4830017252604,427.94472656249997L228.74042938476563,217.2438720703125L229.11056830729166,189.7058241410689L229.87577236979166,-180.22074529474435L229.99606528971356,168.21612437855114L230.50484717447918,43.78878229314629L230.88517876302083,125.72363392223012L231.1350085481771,260.91866122159087L232.9029374153646,285.02742420543325L233.28280680664062,451.78276894309306L233.79186438802083,458.61276189630684L233.92387441406245,133.41345187100498L234.3051303971354,413.41878079501066L234.4303858561198,222.80641229802913L234.56260670898436,426.2216683127663L242.79408053059893,100.18471319025214L243.17004962565102,237.72100441672583L243.42422568684898,37.785003662109375L243.5553194270833,343.37146329012785L244.3006408984375,395.19429765181104L244.43008045898438,266.2925412264737L244.67525583658852,46.14394142844462L244.9258883854167,335.2724445689808L245.17307472656253,368.71301963112575L245.42123411458334,288.80901822176844L245.79588959635421,254.31565829190342L246.0479817154948,510.75141074440694L246.30458228515624,230.21444591175427L246.55684468749996,301.03029951615764L246.80486622721355,307.8265769264915L247.0579395019531,382.31627114035865L248.31835955403645,305.7188573663885L248.8095292903646,351.69715742631394L249.29915836914063,252.87417463822797L249.4190296354167,-13.801454856178983L249.79322291992187,378.3956726074219L250.17691152018227,331.61433438387786L250.55480238281245,90.43515347567472L250.80532951822917,284.478642134233L251.18842618164064,279.81027166193184L251.95027323242186,178.59138793945314L252.2028275488281,-123.25899103338065L252.45091395833336,219.77699473987926L252.57636402669272,339.10054820667614L252.957352421875,318.9607285933061L253.08472425781252,295.9475896661932L253.20805794921876,362.9190324263139L253.5819917545573,148.9082869096236L254.5834272721354,59.97475974343039L255.2095910449219,293.6105729536577L255.46240484049477,161.60845475630325L256.2226058203125,310.13695678710934L256.73150933593746,-47.7403697620739L256.8568053385417,253.40381802645598L256.9796930501302,225.44566289728337L257.1028645670573,223.8921786221591L257.8658225130208,292.3954501065341L258.2483272395833,494.66406305486504L259.1351054003906,255.37630837180396L259.3817322395833,397.53225818980826L259.76461807617187,-103.79741488370026L259.8876030924479,265.94012728604406L260.27560553385416,214.37820822975854L261.0331387434896,-332.19594060724427L261.2876229361979,170.3469676624645L261.67459556966145,294.1487632057884L262.06250881510414,96.86160860928624L262.18922384440106,142.80850025523793L262.3123142740885,229.5610565185547L262.4384130403646,276.14822887073865L262.56713092447916,347.69942737926135L263.3233586295573,297.7943414861506L264.0803242285156,441.91848200017756L265.6090214127604,-425.9516817959872L266.2469509440104,320.4990067915483L272.67633384440103,184.392558704723L273.5665825390625,173.87876253995026L273.8202315332031,226.9211242675781L274.18912982096356,170.37779929421166L274.4423733789062,199.6803289240057L274.56749909830734,-142.61150290749288L274.94174103515627,273.6155781139027L275.0672965169271,-124.32215798117902L275.3177344563802,188.70426802201703L275.4430304589844,255.9279219193892L275.82230791341146,164.13811673251064L277.9673248795573,227.34060225053267L278.09567787109376,-390.73640025745743L278.22128200520837,53.163066517223L278.85334892903643,149.20538219105114L279.22798819335935,33.428305331143484L279.7401108723958,-90.48423239968042L279.8671989029948,233.53230701793322L279.9926165364583,420.5131497469815L280.49469250651043,85.62033275257458L280.62293197591146,250.24347090287642L280.7495821354167,371.72009998668324L281.0046988085938,-137.13395940607242L281.5093452441406,462.09096846147014L281.75452873046873,332.41732011274854L282.74672841145826,374.6488952636719L283.38368489583337,47.91891007856888L283.510448577474,191.6711309259588L284.6403425,431.39642736261544L284.76705752929684,220.60294688831678L286.1559035514323,274.75503761985084L287.1626259570313,-0.47615994540130435L287.2928926074219,321.60873579545455L287.66329911783856,291.59330333362925L287.91972940429685,-154.15071300159798L288.0414818945312,418.9678977272727L289.0434606966146,93.46000921075995L289.17249482096355,-175.7453346946023L289.30339395182295,342.696523215554L289.4333605794271,322.9949007901278L289.82574173177085,103.1555087002841L290.0706576302083,122.87773798162289L290.31966843424476,9.668967507102291L291.3212336914063,209.75141851251774L291.95776041341145,263.9786482377486L292.08885415364585,363.77927689985796L292.4675883235677,255.16819485751066L293.3492498795573,458.8214784102006L293.61504574218753,15.068278364701692L294.88638013671874,38.22503606622869L295.5200120442708,104.51577092950993L295.6450242415365,298.2791531649503L295.91004166666664,-83.54333995472302L296.04439511393235,57.985804887251405L296.8029256966146,293.96041759144174L303.5907304134115,137.87680247913707L303.71397490885414,275.0789270574396L304.86045928059895,120.77064763849432L305.35596718424483,402.21289839311083L305.6101432454427,325.1076016512784L306.1229794921875,458.74557911265975L307.2682394466146,-162.26446588689632L307.5257319759114,360.4993785511364L307.9062662825521,314.6302476362749L308.159071969401,321.0074665416371L308.2862735221354,298.1378415194425L308.9084072591146,570.2529731056907L309.2814653222656,271.98873762650925L309.91245378580726,34.28152354847301L310.16616764973963,277.2214632901278L310.9242603613281,435.22641865123404L311.0541945540364,90.42304104891691L311.1843071386719,134.3525057705966L311.67704185872395,298.47158868963066L312.3124739029948,185.78564508611507L312.69167027018227,364.66579118208455L312.94387591145835,447.4697749744762L313.3151987076823,309.06435158469463L313.68053726562505,424.73249525590376L314.1799860091146,333.2770402388139L315.0663019726563,324.23938709605824L315.19178447591145,465.26164523038L315.31536953776043,523.9415288751776L316.19588776367186,280.6915949041193L316.44796366536457,359.37077303799714L316.69505270182293,-80.74133189808238L317.0804198079427,172.40020751953125L317.20406973958336,348.3885772705078L317.9708387858073,342.81413435502486L318.0962807454427,-127.63844604492184L319.1050303320313,207.6595342462713L319.477764046224,-23.0836636629972L319.60433311848954,-101.19948286576701L319.72857498697914,59.36268893155185L319.8589389420573,392.1290671608665L320.49700632161455,-72.37022927024145L321.39156074869794,367.8124528364702L321.51882717122396,84.96573736017399L322.15146170572916,33.86865234375L322.4139329915365,-114.20560746626424L322.5423832877604,285.8196083762429L322.6744338574219,373.23368141867894L323.8061927864583,120.04872602982955L324.299405921224,273.54127807617186L324.54968979492185,438.2645665949041L324.67713460937495,245.09983187588782L324.92816448567703,333.3048830899325L325.577008359375,263.96092529296874L325.70391799804685,471.75909701260656L325.96557030273436,370.33844438032673L326.0873876627604,294.72381508567116L326.21514060872397,107.69090465198865L326.6023402864583,336.1852810946378L326.85384857747397,212.6926408247514L327.11404131184895,-37.21147238991473L334.1529488834635,191.5227930242365L334.5357941764323,575.782767833363L335.67819986002604,167.7055148037997L336.4396090397135,250.6799901788885L336.5643779752604,322.55460621226916L337.3159755989583,479.75730993097477L337.44149053710936,-475.9921542080967L337.56485666341143,168.84156605113637L338.57129526367186,306.683237249201L339.3372453287761,353.75716136585584L339.46829852539065,205.42523720481176L340.4881489550781,505.2434550892223L340.62080767903643,240.46166381835937L340.9984552799479,332.13259943181816L341.37519470377606,412.6045740300959L341.8848036783854,259.0479991566051L342.13280900065104,170.51659407182171L342.6435775227865,329.2105158025568L343.40707064453125,282.6930292302912L343.9095196158854,423.832846069336L344.0305017773437,114.61758728027344L344.41134421549475,368.3890253240412L345.0423245703125,425.76684930974784L345.5409786588542,131.3376650723544L346.05004434895835,245.36032770330257L346.30152020507813,-13.369916881214525L347.42687324218747,460.31668146306816L347.55383153320315,47.698317094282665L348.29612034179684,110.07684298428622L348.42208936848954,212.58756159002132L348.55058831705736,-140.97826538085937L348.80759432291666,304.9769056840376L349.0563943001302,292.94003739790486L350.55195923828126,514.4417945168235L351.68557506510416,227.97569191672585L352.1876023828125,384.6241865678267L352.8222073372396,176.07294699928977L352.95163068033855,41.18267045454547L353.57772958333334,209.63317815607243L353.7061393359375,36.997328879616475L353.8290108300782,230.08461747602982L354.34889355794274,232.8371271306818L354.47504097656247,298.22566972212354L355.2287063248698,219.67920393510295L355.73775579752606,120.71747880415482L355.8618922526042,189.07907159978694L355.9933346679687,169.03043601296164L356.2431482356771,67.99832486239347L356.36952269856766,243.64261779785156L357.0022545377604,-258.352294921875L357.3760586035156,154.18233115456323L357.63130501627603,453.16473915793676L364.3028387402344,456.8469955444336L364.67860511718754,279.5227195046165L364.93323526692706,110.99602411443539L365.8219919563802,529.3245849609375L366.07331374674476,351.61158391779117L366.3256329101563,5.303093095259213L367.58804770833336,186.97528464577417L367.7125733821615,305.19256980202414L367.8370341861979,221.74072848233308L369.59490823567705,527.3524092240767L370.09587331054684,-237.16488148082385L370.59044060221356,344.9161385276101L370.72170462565106,461.8240231600675L371.09627091145836,-26.609376109730118L371.2216074576823,245.5181562943892L371.6016471321615,62.67829534357244L371.8535284244791,179.26611827503552L372.1070395703125,409.7494495738636L372.7309896614583,298.2778947310014L373.11539993815103,77.9407920143821L373.3746520605469,49.709871326793326L373.74308815104166,-50.89379549893465L374.11312166015625,329.9753290349787L374.4785980664062,251.12007501775568L374.72433294596357,74.2471835049716L375.09959658203127,291.926840764826L375.47980653971354,192.77247037020598L375.6021915104166,263.6270732532848L375.97493333333335,303.0669699928977L376.3520700846354,198.87508850097655L377.46033804036455,353.60908563787285L377.71557634440103,458.78013361150573L378.98940822591146,550.4339230624113L379.1225859082032,325.7840098987926L379.251044313151,101.25128839666195L379.50296614908854,348.7401522549716L379.6322516438802,362.85076238458805L379.8892089973958,12.607305908203141L380.14558252278647,278.7438537597656L380.5239680175781,405.7003334738991L380.656732154948,-42.699712579900584L381.1660978678385,315.6145527232777L381.7883126920573,55.22343750000001L382.0422292740886,302.2480965354226L382.92870741210936,242.96070390181112L383.0629149023437,96.99474043412643L383.1927274641927,205.09547507546165L383.3195073632813,372.6826970880682L383.7028391796875,461.4654743541371L383.9514931998698,424.64852100719105L384.4556287858073,72.03894653320314L384.8371766829427,370.4840556751598L385.0917906152344,60.9777316006747L385.3391553483073,69.25377003062856L385.46593524739586,143.4852755459872L385.5925610807291,326.4887853449041L386.0797088899739,153.85933310768823L386.58842590494794,404.4659146395597L386.8410613085937,527.4244021329013L387.342910234375,239.5738386674361L387.4681981282552,206.53695872913707L387.72612041992187,148.24713717373936L387.84813238932287,313.1850411155007L388.09990015950524,29.096041592684667L388.22548807617187,332.4220392400568L388.35117329752603,457.78382096724073L394.4705758984375,353.51517500443896L394.5963422070312,28.92054249156604L394.85200216471355,399.54952780983666L395.487126077474,212.4706321022727L395.61673592122395,62.36221868341621L396.3776423600261,15.47029557661578L396.5026302311198,506.83238525390624L396.6275775585937,258.0922185724432L397.1276101302083,262.5179210316051L397.3774642415365,238.23549416281958L397.63254037109374,220.43242908824573L398.12961325846356,6.487489180131396L399.3782351171875,384.0671722412109L400.01153456705725,-78.51348433061078L400.5155160872396,134.7558338512074L400.76318895182294,139.5162273060192L400.88524957356765,554.8187264182351L401.0115591666667,81.72930741743608L401.38940137695306,20.837830977006394L401.90055100911457,473.4607618852095L402.02323600260416,103.86704822887073L402.3995862076823,212.50634016557174L402.7755309765625,355.4826316139915L404.02875048177077,291.20969071821736L404.15497898763016,340.3373790394176L404.52846681315106,230.63376659046517L404.6556764746094,388.8275656960227L404.90914707682293,318.64192532626066L405.2842566471354,-277.7558782404119L405.53262686197917,484.19134951504793L405.65457396158854,251.32142444957387L405.90731477864585,-18.609144453568888L406.02769689453123,341.67388832785866L406.14850877278644,398.3891468394886L406.27739694010415,-214.65380526455965L406.5265699186198,296.7065826416015L406.7706425097656,392.6934747869318L406.8981116503906,279.08835005326705L407.4029932389323,-96.89039528586652L407.5255241666667,361.1446405584162L407.7816787565104,414.06970575506034L408.16425646158854,218.10138993696737L408.8004345084635,434.87759649103333L410.3128250488281,173.48288019353694L410.82501259765627,407.36157115589486L411.20405489908853,456.5078213778409L411.82076389973963,328.413979547674L412.077380686849,23.289417613636374L412.466194000651,414.22061295942825L413.21734564453124,140.35402970747512L413.3447174804688,68.84477899724789L413.59244710611983,157.80782692649146L413.97049203450524,164.30491166548293L414.34656654296873,-28.116036155007126L414.6032644173177,407.9696044921875L415.7477540429687,253.50097961425783L415.8737636132812,251.5397627397017L416.00028403320306,230.30180220170453L416.1290424609375,420.2141143798828L416.3829266080729,517.4684592507102L416.6375648665364,278.8820717551491L417.0216994466146,492.0607826926491L417.6577315364583,-127.63288796164777L417.9114940527344,184.0959353360263L418.03875236653647,426.62856195623226L418.17090024088543,-566.6296009410512L418.29817477213544,287.49322065873577L425.1712913736979,-79.55892833362925L426.29978248697915,68.51323408647018L426.9150724609375,258.27511097301135L427.91313474934896,280.7574529474432L428.04216076497397,191.0348876953125L428.42012460611977,163.85239979137074L428.92064370117185,172.01858742453837L429.79302887695314,458.63221518776635L430.1734091178385,420.7121396151456L430.55687067382814,198.2119462446733L430.6814206738281,317.01733953302556L430.80876818359377,230.89761824174357L431.0711664908854,-101.4355441006747L432.0800052734375,183.12584006569602L432.3267456347656,240.23163257945666L432.57753224934896,229.88305830522017L432.8329084016927,268.0183260830966L434.07307286132817,316.2620694247159L435.07814108723954,-46.41398037997162L435.2079860839844,183.09416947798297L435.33474165690103,2.450118463689629L435.84187747070314,-26.591233686967293L436.59534010091147,54.69017611416905L437.6024030729167,295.8306601784446L438.3570090332031,182.37969360351562L438.48309158203125,226.78232948996802L438.607487516276,295.65007490678266L438.7357837467448,254.60908314098012L438.99165453125,295.3562830144709L439.23015642903647,156.19220747514203L439.6015603125,148.515707952326L440.36398308268235,359.1713112571023L440.6157265266927,228.91941250887785L441.5037291048177,413.2166972767223L442.01372729817706,386.246255493164L442.2744146647135,4.1448619495738495L442.76311124023437,128.22477139559658L442.889485703125,567.3322003451261L443.14542946614586,-478.6095919522372L443.7788181119792,283.87008445046166L444.16214181966143,234.92937844016333L444.4178179947916,275.0914065274325L444.7974603417969,408.1476728959517L444.9228698665364,15.02040543989703L445.0499497884115,270.5376059792259L446.32091118164067,300.6821327903054L446.4445854394531,363.5615153919567L446.703245625,404.99235950816757L446.8354097167969,236.4933496648615L446.9585325813802,415.2263114235618L447.08707207356775,-29.95691528320314L447.6005083658854,124.43164173473012L447.84576483072914,299.22240184437146L448.22925071289063,366.7465592817827L448.4840592545573,383.75880348899153L448.7367433105469,170.1326144131747L448.989135452474,196.80590848055752L456.01705570312504,-236.7777033025568L456.7734212565104,535.4133603182705L457.02496198242187,302.450547096946L457.2795191536458,402.71800231933594L457.66288340494793,94.63360373757102L458.0352279003906,167.67646595348012L458.78999603515626,149.0056582364169L458.917505719401,178.53643632368608L459.4209358463542,173.95332475142047L459.7954615885417,374.4627519087358L460.17177935872394,358.90850830078125L460.4250715690104,282.81892505992545L460.55008376627603,234.2908280806108L461.0558978580729,303.9690049604936L461.5475216829427,112.19819557883523L461.91643618815107,269.5839227849787L462.04044290364584,30.8001708984375L462.1633306152343,428.98261996182526L462.29062136393225,278.8178916237571L462.66671208984377,122.08974859064274L463.166225703125,241.56069613370028L463.92944312825523,52.09428905140271L464.0598395182292,217.1720889004794L464.4294756998698,449.61967828924L465.0561259960937,299.3660206187855L465.4366116503906,110.6191755814986L465.56294556966145,131.3974931196733L465.81376461914067,600.3893200961026L466.06248350911454,295.90847334428264L466.31190785807286,212.17820351340552L466.4394418684896,203.3308360706676L466.8050561230469,284.2754574862393L466.92457871419265,209.15534029873933L467.18327944335937,392.20981667258525L467.55880255859375,209.26608248623936L467.68344175455735,422.7500160910866L467.9350960026042,298.4963903253729L468.6799390592447,-7.3970223166725955L469.0558351757812,392.2878395774148L469.43783716145833,216.3300917191939L469.56095191731777,110.80012789639561L470.0621683626303,471.13577894731L470.82495602539063,506.5679568204013L472.4545500618489,374.79455899325285L472.95633411783854,328.29899014559663L473.2066828613281,298.409663252397L473.84212301432285,238.51082902388143L474.2218545572917,222.36999789151278L474.472065452474,177.2979275790128L474.98055542317707,21.06461126154121L475.6078625260417,152.40128007368608L476.1016027278646,184.98905639648436L476.6076438639323,232.12338534268466L476.98159388671877,293.04338628595525L478.1209020377604,-34.24513383345167L486.0440173046876,403.7849970037287L486.16668608072916,256.7609003240412L486.28720604492196,533.498076282848L486.66655647786456,118.49398332075639L486.7952176009114,26.630979225852265L487.4209759375,-184.08759821111508L488.16431077148434,338.06590576171874L488.2940584635416,317.47965670498934L488.42325476236977,481.5679866443981L488.5539430664062,298.5630348899148L488.68259608072924,112.0536854137074L488.8049891601562,429.0526727849787L488.92609295247394,413.27704967151993L489.9340803190103,256.61759615811434L492.82989214518227,234.49563820578837L492.9621859765625,163.11784140846945L493.0923391048177,257.7879921653054L493.9614321386718,175.42978238192472L494.5876364550781,435.11751167990946L494.970635813802,8.494848632812516L495.344488531901,-44.817237437855134L495.47349833007814,87.79118374911222L495.5988835286458,361.40010265003554L496.1037002473958,-136.318808815696L497.1031004752604,30.81249306418677L497.2259152083333,378.5749994451349L497.85763345703117,-26.505765047940333L497.98500529296876,223.81897971413355L498.23786774088546,139.77090287642045L499.7449227408854,-39.4093272816051L499.99072249023436,279.45046442205256L500.36710513020836,191.59646384499288L500.61669165364583,510.790736805309L501.2391091959635,114.49536188299005L501.6110239290365,30.596199729225834L501.9846009505209,250.11490090110087L503.1353667285156,-69.99933971058242L503.25986807617187,-44.96824951171872L504.00990071614575,338.7068681196733L504.26243070638014,415.708134321733L504.3875969694011,102.32646290172231L505.1458437467448,67.31216375177557L505.52166688476564,417.73631036931823L505.64921711263025,434.0627605091442L506.27985690104174,295.59816450639204L506.53594662109373,187.29314408735797L506.7890361132812,299.8842856667259L507.1609346289062,86.13524197665129L507.287657766927,377.1598380348899L508.3032348990886,219.10383744673297L508.9393724023438,257.51674721457744L509.20147879557294,301.89987737482244L509.3302128971355,366.74708362926134L509.45369254557295,90.97350103204901L509.9713372656249,239.9817285711115L516.7889820865885,363.98351024280896L517.2815708496094,240.96902243874288L517.6659568001303,232.28079445578837L517.7956396223958,216.57637772993607L518.0498481184896,240.97216852361507L519.0680930208333,134.19058726917615L519.693632421875,374.90614013671876L521.1923921972656,299.8881658380682L521.8074470182291,423.74176691228695L522.0592391145833,451.69520291415125L522.1806023860677,300.89381186745385L522.5536199055989,302.8370960582386L522.6859948242187,74.98242353959517L523.8082341113281,225.65063032670454L524.5811657877605,77.55172618519175L525.0746951627603,424.46906308260833L525.9549620182291,402.8502951882103L526.2091137532552,58.6682431307706L526.4537458463542,423.3148956298828L526.7069326432292,174.32985867587L527.0927051855468,-52.04694047407672L527.211579078776,109.55375393954189L527.3374832356772,255.9086259321733L527.7092925553386,388.62432861328125L527.8412944726562,355.60244501287286L527.9656498632812,274.88287353515625L528.0949272493489,309.0301641290838L528.4663960026041,317.9577567360618L528.597376220703,298.7794330943714L528.7237831184896,365.1654418945313L529.1024605273437,547.1593730579723L529.2275700292969,-17.710727483575962L529.4808379134115,289.4628795276989L529.6071312890625,246.46324018998578L530.1146076692709,342.01382279829545L530.3685161425781,135.71344965154472L530.5007532128907,419.2099889581854L530.6257005403646,187.18738320090554L531.1236572786459,378.1113714044745L531.3789036914062,211.34685058593752L531.6289605208333,403.39666526100854L532.0049620507813,267.2027560147372L533.150878811849,361.5991973876953L533.5359296777344,236.75714888139206L533.7901219563802,453.40829856178976L534.0454008040365,478.93806943026453L534.2968604427084,300.199208762429L534.5578802669271,327.4445134943182L534.9432311555989,473.84898875843396L535.6901824804687,236.49780661843042L536.1924368424479,188.6676161332564L536.4476021679687,128.0225830078125L536.8251848990885,420.95968405983666L537.3444756901042,494.0409285111861L537.8500384114584,1.894047962535525L538.3550091959635,209.57335010875354L538.8534281315104,474.66676108620385L539.6074989160156,391.0123643354936L539.9876034602864,211.64410317160866L540.4945608821615,407.0805733420632L540.7467178710938,239.53042269620028L547.1880773567708,192.91986444646662L547.3053213964844,466.297231500799L548.1867072558593,164.388754827326L548.5664469075521,405.4952087402344L548.6925456738281,-153.00564297762784L549.3192202962239,223.6251808860085L549.4420917903647,404.7620660955256L549.5705258691406,-81.64258034446023L549.8252371061199,317.2729589288885L550.2060876529948,182.47103493430396L550.8294701334635,161.14891662597657L551.2062663183594,304.1843544699929L551.3300216634115,4.603928167169746L551.5784729654948,221.52296697443182L552.3335492317708,452.94346452192826L553.5873282389323,263.2156177867543L554.4630136653647,243.97432001287288L554.8259763671875,179.3233770197088L554.9553348404947,171.02038712935015L555.8433130924479,397.72112815163354L555.9640114485677,331.79942904385655L556.0932563997396,235.67190690474078L556.2245042057292,234.06493918678976L556.3507246028645,186.29667413884943L556.8575360677082,443.40110071355645L557.2258343098958,252.26378173828127L558.6230161002604,16.016560779918336L558.7483526464844,330.05010098544034L560.1250842350261,-76.07768055308952L560.3701785253907,521.485354198109L560.6177459765624,307.17659579190337L560.872173408203,324.49909640225496L561.502934827474,346.10147843794385L561.8765929361979,-465.7707341974431L562.0032836393228,246.0867587002841L562.2493996289062,349.6425542658026L562.3737469108073,453.17847706187854L563.2529109798178,252.75383689186788L563.4989620996095,207.7650329589844L563.7567789778645,342.5636535644531L564.7601605891927,277.2505645751953L564.8861458333333,-88.58567504882816" style="fill: none;" fill="none"></path></g></g></g></g></g></g><g transform="translate(41, 378)" clip-path="url(#clip_1)"><clipPath id="clip_1"><rect width="583" height="22"></rect></clipPath><g><g><line x1="0" y1="0" x2="0" y2="5" style="visibility: inherit;" fill="rgb(0, 0, 0)" stroke="rgb(204, 204, 204)" stroke-width="1px"></line><line x1="58.3828125" y1="0" x2="58.3828125" y2="5" style="visibility: inherit;" fill="rgb(0, 0, 0)" stroke="rgb(204, 204, 204)" stroke-width="1px"></line><line x1="116.765625" y1="0" x2="116.765625" y2="5" style="visibility: inherit;" fill="rgb(0, 0, 0)" stroke="rgb(204, 204, 204)" stroke-width="1px"></line><line x1="175.1484375" y1="0" x2="175.1484375" y2="5" style="visibility: inherit;" fill="rgb(0, 0, 0)" stroke="rgb(204, 204, 204)" stroke-width="1px"></line><line x1="233.53125" y1="0" x2="233.53125" y2="5" style="visibility: inherit;" fill="rgb(0, 0, 0)" stroke="rgb(204, 204, 204)" stroke-width="1px"></line><line x1="291.9140625" y1="0" x2="291.9140625" y2="5" style="visibility: inherit;" fill="rgb(0, 0, 0)" stroke="rgb(204, 204, 204)" stroke-width="1px"></line><line x1="350.296875" y1="0" x2="350.296875" y2="5" style="visibility: inherit;" fill="rgb(0, 0, 0)" stroke="rgb(204, 204, 204)" stroke-width="1px"></line><line x1="408.6796875" y1="0" x2="408.6796875" y2="5" style="visibility: inherit;" fill="rgb(0, 0, 0)" stroke="rgb(204, 204, 204)" stroke-width="1px"></line><line x1="467.0625" y1="0" x2="467.0625" y2="5" style="visibility: inherit;" fill="rgb(0, 0, 0)" stroke="rgb(204, 204, 204)" stroke-width="1px"></line><line x1="525.4453125" y1="0" x2="525.4453125" y2="5" style="visibility: inherit;" fill="rgb(0, 0, 0)" stroke="rgb(204, 204, 204)" stroke-width="1px"></line><line x1="583.828125" y1="0" x2="583.828125" y2="5" style="visibility: inherit;" fill="rgb(0, 0, 0)" stroke="rgb(204, 204, 204)" stroke-width="1px"></line></g><g transform="translate(0, 8)"><text x="0" y="0" dx="0em" dy="0.95em" style="text-anchor: middle; visibility: hidden; font-family: Roboto, sans-serif; font-size: 12px; font-weight: 200;" fill="rgb(50, 49, 63)" stroke="none" stroke-width="1px">-2</text><text x="58.3828125" y="0" dx="0em" dy="0.95em" style="text-anchor: middle; visibility: inherit; font-family: Roboto, sans-serif; font-size: 12px; font-weight: 200;" fill="rgb(50, 49, 63)" stroke="none" stroke-width="1px">0</text><text x="116.765625" y="0" dx="0em" dy="0.95em" style="text-anchor: middle; visibility: inherit; font-family: Roboto, sans-serif; font-size: 12px; font-weight: 200;" fill="rgb(50, 49, 63)" stroke="none" stroke-width="1px">2</text><text x="175.1484375" y="0" dx="0em" dy="0.95em" style="text-anchor: middle; visibility: inherit; font-family: Roboto, sans-serif; font-size: 12px; font-weight: 200;" fill="rgb(50, 49, 63)" stroke="none" stroke-width="1px">4</text><text x="233.53125" y="0" dx="0em" dy="0.95em" style="text-anchor: middle; visibility: inherit; font-family: Roboto, sans-serif; font-size: 12px; font-weight: 200;" fill="rgb(50, 49, 63)" stroke="none" stroke-width="1px">6</text><text x="291.9140625" y="0" dx="0em" dy="0.95em" style="text-anchor: middle; visibility: inherit; font-family: Roboto, sans-serif; font-size: 12px; font-weight: 200;" fill="rgb(50, 49, 63)" stroke="none" stroke-width="1px">8</text><text x="350.296875" y="0" dx="0em" dy="0.95em" style="text-anchor: middle; visibility: inherit; font-family: Roboto, sans-serif; font-size: 12px; font-weight: 200;" fill="rgb(50, 49, 63)" stroke="none" stroke-width="1px">10</text><text x="408.6796875" y="0" dx="0em" dy="0.95em" style="text-anchor: middle; visibility: inherit; font-family: Roboto, sans-serif; font-size: 12px; font-weight: 200;" fill="rgb(50, 49, 63)" stroke="none" stroke-width="1px">12</text><text x="467.0625" y="0" dx="0em" dy="0.95em" style="text-anchor: middle; visibility: inherit; font-family: Roboto, sans-serif; font-size: 12px; font-weight: 200;" fill="rgb(50, 49, 63)" stroke="none" stroke-width="1px">14</text><text x="525.4453125" y="0" dx="0em" dy="0.95em" style="text-anchor: middle; visibility: inherit; font-family: Roboto, sans-serif; font-size: 12px; font-weight: 200;" fill="rgb(50, 49, 63)" stroke="none" stroke-width="1px">16</text><text x="583.828125" y="0" dx="0em" dy="0.95em" style="text-anchor: middle; visibility: hidden; font-family: Roboto, sans-serif; font-size: 12px; font-weight: 200;" fill="rgb(50, 49, 63)" stroke="none" stroke-width="1px">18</text></g><line x1="0" y1="0" x2="583.828125" y2="0" fill="rgb(0, 0, 0)" stroke="rgb(204, 204, 204)" stroke-width="1px"></line></g></g></g></g></svg>